<mxfile host="app.diagrams.net" modified="2020-03-26T13:45:33.278Z" agent="Mozilla/5.0 (Windows NT 10.0; WOW64) AppleWebKit/537.36 (KHTML, like Gecko) Chrome/65.0.3314.0 Safari/537.36 SE 2.X MetaSr 1.0" etag="Ai_hLen69pKoA5gV26GC" version="12.9.3" type="github" pages="16">
  <diagram id="eeqbbg8ScYCf5zG0aNKg" name="绑定目标">
    <mxGraphModel dx="1422" dy="747" grid="1" gridSize="10" guides="1" tooltips="1" connect="1" arrows="1" fold="1" page="1" pageScale="1" pageWidth="1169" pageHeight="827" math="0" shadow="0">
      <root>
        <mxCell id="0" />
        <mxCell id="1" parent="0" />
        <mxCell id="K4hzTJGkmZJ6vhD9lkGe-1" value="绑定目标" style="text;html=1;align=center;verticalAlign=middle;resizable=0;points=[];autosize=1;" parent="1" vertex="1">
          <mxGeometry x="70" y="20" width="60" height="20" as="geometry" />
        </mxCell>
        <mxCell id="K4hzTJGkmZJ6vhD9lkGe-3" value="BindingTarget" style="text;html=1;align=center;verticalAlign=middle;resizable=0;points=[];autosize=1;" parent="1" vertex="1">
          <mxGeometry x="55" y="40" width="90" height="20" as="geometry" />
        </mxCell>
        <mxCell id="K4hzTJGkmZJ6vhD9lkGe-10" style="edgeStyle=orthogonalEdgeStyle;rounded=0;orthogonalLoop=1;jettySize=auto;html=1;exitX=1;exitY=0.25;exitDx=0;exitDy=0;entryX=0;entryY=0.25;entryDx=0;entryDy=0;shape=flexArrow;" parent="1" source="K4hzTJGkmZJ6vhD9lkGe-4" target="K4hzTJGkmZJ6vhD9lkGe-6" edge="1">
          <mxGeometry relative="1" as="geometry" />
        </mxCell>
        <mxCell id="K4hzTJGkmZJ6vhD9lkGe-12" style="edgeStyle=orthogonalEdgeStyle;shape=flexArrow;rounded=0;orthogonalLoop=1;jettySize=auto;html=1;exitX=1;exitY=0.75;exitDx=0;exitDy=0;entryX=0;entryY=0.75;entryDx=0;entryDy=0;" parent="1" source="K4hzTJGkmZJ6vhD9lkGe-4" target="K4hzTJGkmZJ6vhD9lkGe-6" edge="1">
          <mxGeometry relative="1" as="geometry" />
        </mxCell>
        <mxCell id="K4hzTJGkmZJ6vhD9lkGe-4" value="&amp;nbsp; &amp;nbsp; &amp;nbsp; &amp;nbsp; &amp;nbsp; &amp;nbsp; 依赖对象&lt;br&gt;&amp;nbsp; &amp;nbsp; &amp;nbsp;DependencyObject" style="rounded=1;whiteSpace=wrap;html=1;align=left;verticalAlign=top;" parent="1" vertex="1">
          <mxGeometry y="80" width="200" height="160" as="geometry" />
        </mxCell>
        <mxCell id="K4hzTJGkmZJ6vhD9lkGe-5" value="&amp;nbsp; &amp;nbsp; &amp;nbsp; &amp;nbsp; &amp;nbsp; &amp;nbsp; &amp;nbsp;&lt;br&gt;&amp;nbsp; &amp;nbsp; &amp;nbsp; &amp;nbsp; &amp;nbsp; &amp;nbsp; &amp;nbsp;依赖属性&lt;br&gt;&amp;nbsp; &amp;nbsp; &amp;nbsp; &amp;nbsp; &amp;nbsp;Dependency&lt;br&gt;&amp;nbsp; &amp;nbsp; &amp;nbsp; &amp;nbsp; &amp;nbsp; &amp;nbsp; &amp;nbsp;Property" style="rounded=1;whiteSpace=wrap;html=1;align=left;verticalAlign=top;" parent="1" vertex="1">
          <mxGeometry x="60" y="130" width="130" height="100" as="geometry" />
        </mxCell>
        <mxCell id="K4hzTJGkmZJ6vhD9lkGe-11" style="edgeStyle=orthogonalEdgeStyle;shape=flexArrow;rounded=0;orthogonalLoop=1;jettySize=auto;html=1;exitX=0;exitY=0.5;exitDx=0;exitDy=0;entryX=1;entryY=0.5;entryDx=0;entryDy=0;" parent="1" source="K4hzTJGkmZJ6vhD9lkGe-6" target="K4hzTJGkmZJ6vhD9lkGe-4" edge="1">
          <mxGeometry relative="1" as="geometry" />
        </mxCell>
        <mxCell id="K4hzTJGkmZJ6vhD9lkGe-6" value="&amp;nbsp; &amp;nbsp; &amp;nbsp; &amp;nbsp; &amp;nbsp;普通对象&lt;br&gt;&amp;nbsp; &amp;nbsp; &amp;nbsp; &amp;nbsp; &amp;nbsp;Object ：&lt;br&gt;&amp;nbsp; &amp;nbsp; &amp;nbsp; &amp;nbsp; &amp;nbsp; &amp;nbsp;INotifyPropertyChanged" style="rounded=1;whiteSpace=wrap;html=1;align=left;verticalAlign=top;" parent="1" vertex="1">
          <mxGeometry x="400" y="80" width="200" height="160" as="geometry" />
        </mxCell>
        <mxCell id="K4hzTJGkmZJ6vhD9lkGe-7" value="&amp;nbsp; &amp;nbsp; &amp;nbsp; &amp;nbsp; &amp;nbsp; &amp;nbsp; &amp;nbsp;&lt;br&gt;&amp;nbsp; &amp;nbsp; &amp;nbsp; &amp;nbsp; &amp;nbsp;普通属性&lt;br&gt;&amp;nbsp; &amp;nbsp; &amp;nbsp; &amp;nbsp; &amp;nbsp;Property" style="rounded=1;whiteSpace=wrap;html=1;align=left;verticalAlign=top;" parent="1" vertex="1">
          <mxGeometry x="410" y="130" width="130" height="100" as="geometry" />
        </mxCell>
        <mxCell id="K4hzTJGkmZJ6vhD9lkGe-8" value="绑定源" style="text;html=1;align=center;verticalAlign=middle;resizable=0;points=[];autosize=1;" parent="1" vertex="1">
          <mxGeometry x="475" y="20" width="50" height="20" as="geometry" />
        </mxCell>
        <mxCell id="K4hzTJGkmZJ6vhD9lkGe-9" value="BindingSource" style="text;html=1;align=center;verticalAlign=middle;resizable=0;points=[];autosize=1;" parent="1" vertex="1">
          <mxGeometry x="450" y="40" width="100" height="20" as="geometry" />
        </mxCell>
      </root>
    </mxGraphModel>
  </diagram>
  <diagram id="e0waaiOlorAQf-1UK0nA" name="仓库存储信息管理模块">
    
    <mxGraphModel dx="1422" dy="747" grid="1" gridSize="10" guides="1" tooltips="1" connect="1" arrows="1" fold="1" page="1" pageScale="1" pageWidth="1169" pageHeight="827" math="0" shadow="0">
      
      <root>
        
        <mxCell id="PMX6HYAyWHX9HIxOQywM-0" />
        
        <mxCell id="PMX6HYAyWHX9HIxOQywM-1" parent="PMX6HYAyWHX9HIxOQywM-0" />
        
        <mxCell id="PMX6HYAyWHX9HIxOQywM-2" value="查询&lt;br&gt;样品&lt;br&gt;信息" style="rounded=0;whiteSpace=wrap;html=1;align=center;" parent="PMX6HYAyWHX9HIxOQywM-1" vertex="1">
          
          <mxGeometry y="120" width="40" height="80" as="geometry" />
          
        </mxCell>
        
        <mxCell id="PMX6HYAyWHX9HIxOQywM-13" style="edgeStyle=orthogonalEdgeStyle;rounded=0;orthogonalLoop=1;jettySize=auto;html=1;exitX=0.5;exitY=0;exitDx=0;exitDy=0;endArrow=none;endFill=0;" parent="PMX6HYAyWHX9HIxOQywM-1" source="PMX6HYAyWHX9HIxOQywM-3" edge="1">
          
          <mxGeometry relative="1" as="geometry">
            
            <mxPoint x="100" y="80" as="targetPoint" />
            
          </mxGeometry>
          
        </mxCell>
        
        <mxCell id="PMX6HYAyWHX9HIxOQywM-3" value="查询&lt;br&gt;货箱&lt;br&gt;信息" style="rounded=0;whiteSpace=wrap;html=1;align=center;" parent="PMX6HYAyWHX9HIxOQywM-1" vertex="1">
          
          <mxGeometry x="80" y="120" width="40" height="80" as="geometry" />
          
        </mxCell>
        
        <mxCell id="PMX6HYAyWHX9HIxOQywM-14" style="edgeStyle=orthogonalEdgeStyle;rounded=0;orthogonalLoop=1;jettySize=auto;html=1;exitX=0.5;exitY=0;exitDx=0;exitDy=0;endArrow=none;endFill=0;" parent="PMX6HYAyWHX9HIxOQywM-1" source="PMX6HYAyWHX9HIxOQywM-4" edge="1">
          
          <mxGeometry relative="1" as="geometry">
            
            <mxPoint x="180" y="80" as="targetPoint" />
            
          </mxGeometry>
          
        </mxCell>
        
        <mxCell id="PMX6HYAyWHX9HIxOQywM-4" value="查询&lt;br&gt;货架&lt;br&gt;信息&lt;span style=&quot;color: rgba(0 , 0 , 0 , 0) ; font-family: monospace ; font-size: 0px ; white-space: nowrap&quot;&gt;%3CmxGraphModel%3E%3Croot%3E%3CmxCell%20id%3D%220%22%2F%3E%3CmxCell%20id%3D%221%22%20parent%3D%220%22%2F%3E%3CmxCell%20id%3D%222%22%20value%3D%22%E6%9F%A5%E8%AF%A2%26lt%3Bbr%26gt%3B%E6%A0%B7%E5%93%81%26lt%3Bbr%26gt%3B%E4%BF%A1%E6%81%AF%22%20style%3D%22rounded%3D0%3BwhiteSpace%3Dwrap%3Bhtml%3D1%3Balign%3Dcenter%3B%22%20vertex%3D%221%22%20parent%3D%221%22%3E%3CmxGeometry%20y%3D%22120%22%20width%3D%2240%22%20height%3D%2280%22%20as%3D%22geometry%22%2F%3E%3C%2FmxCell%3E%3C%2Froot%3E%3C%2FmxGraphModel%3E&lt;/span&gt;" style="rounded=0;whiteSpace=wrap;html=1;align=center;" parent="PMX6HYAyWHX9HIxOQywM-1" vertex="1">
          
          <mxGeometry x="160" y="120" width="40" height="80" as="geometry" />
          
        </mxCell>
        
        <mxCell id="PMX6HYAyWHX9HIxOQywM-17" style="edgeStyle=orthogonalEdgeStyle;rounded=0;orthogonalLoop=1;jettySize=auto;html=1;exitX=0.5;exitY=0;exitDx=0;exitDy=0;endArrow=none;endFill=0;" parent="PMX6HYAyWHX9HIxOQywM-1" source="PMX6HYAyWHX9HIxOQywM-5" edge="1">
          
          <mxGeometry relative="1" as="geometry">
            
            <mxPoint x="260" y="80" as="targetPoint" />
            
          </mxGeometry>
          
        </mxCell>
        
        <mxCell id="PMX6HYAyWHX9HIxOQywM-18" style="edgeStyle=orthogonalEdgeStyle;rounded=0;orthogonalLoop=1;jettySize=auto;html=1;exitX=0.5;exitY=1;exitDx=0;exitDy=0;entryX=0.5;entryY=0;entryDx=0;entryDy=0;endArrow=none;endFill=0;" parent="PMX6HYAyWHX9HIxOQywM-1" source="PMX6HYAyWHX9HIxOQywM-5" target="PMX6HYAyWHX9HIxOQywM-8" edge="1">
          
          <mxGeometry relative="1" as="geometry" />
          
        </mxCell>
        
        <mxCell id="PMX6HYAyWHX9HIxOQywM-5" value="显示&lt;br&gt;样品&lt;br&gt;位置" style="rounded=0;whiteSpace=wrap;html=1;align=center;" parent="PMX6HYAyWHX9HIxOQywM-1" vertex="1">
          
          <mxGeometry x="240" y="120" width="40" height="80" as="geometry" />
          
        </mxCell>
        
        <mxCell id="PMX6HYAyWHX9HIxOQywM-16" style="edgeStyle=orthogonalEdgeStyle;rounded=0;orthogonalLoop=1;jettySize=auto;html=1;exitX=0.5;exitY=0;exitDx=0;exitDy=0;endArrow=none;endFill=0;" parent="PMX6HYAyWHX9HIxOQywM-1" source="PMX6HYAyWHX9HIxOQywM-6" edge="1">
          
          <mxGeometry relative="1" as="geometry">
            
            <mxPoint x="340" y="80" as="targetPoint" />
            
          </mxGeometry>
          
        </mxCell>
        
        <mxCell id="PMX6HYAyWHX9HIxOQywM-6" value="土壤&lt;br&gt;样品&lt;br&gt;入库" style="rounded=0;whiteSpace=wrap;html=1;align=center;" parent="PMX6HYAyWHX9HIxOQywM-1" vertex="1">
          
          <mxGeometry x="320" y="120" width="40" height="80" as="geometry" />
          
        </mxCell>
        
        <mxCell id="PMX6HYAyWHX9HIxOQywM-15" style="edgeStyle=orthogonalEdgeStyle;rounded=0;orthogonalLoop=1;jettySize=auto;html=1;exitX=0.5;exitY=0;exitDx=0;exitDy=0;endArrow=none;endFill=0;" parent="PMX6HYAyWHX9HIxOQywM-1" source="PMX6HYAyWHX9HIxOQywM-7" edge="1">
          
          <mxGeometry relative="1" as="geometry">
            
            <mxPoint x="220" y="40" as="targetPoint" />
            
          </mxGeometry>
          
        </mxCell>
        
        <mxCell id="PMX6HYAyWHX9HIxOQywM-7" value="土壤&lt;br&gt;样品&lt;br&gt;出库" style="rounded=0;whiteSpace=wrap;html=1;align=center;" parent="PMX6HYAyWHX9HIxOQywM-1" vertex="1">
          
          <mxGeometry x="400" y="120" width="40" height="80" as="geometry" />
          
        </mxCell>
        
        <mxCell id="PMX6HYAyWHX9HIxOQywM-8" value="位置&lt;br&gt;信息&lt;br&gt;显示" style="rounded=0;whiteSpace=wrap;html=1;align=center;" parent="PMX6HYAyWHX9HIxOQywM-1" vertex="1">
          
          <mxGeometry x="210" y="280" width="40" height="80" as="geometry" />
          
        </mxCell>
        
        <mxCell id="PMX6HYAyWHX9HIxOQywM-19" style="edgeStyle=orthogonalEdgeStyle;rounded=0;orthogonalLoop=1;jettySize=auto;html=1;exitX=0.5;exitY=0;exitDx=0;exitDy=0;endArrow=none;endFill=0;" parent="PMX6HYAyWHX9HIxOQywM-1" source="PMX6HYAyWHX9HIxOQywM-9" edge="1">
          
          <mxGeometry relative="1" as="geometry">
            
            <mxPoint x="260" y="200" as="targetPoint" />
            
          </mxGeometry>
          
        </mxCell>
        
        <mxCell id="PMX6HYAyWHX9HIxOQywM-9" value="位置&lt;br&gt;信息&lt;br&gt;3D&lt;br&gt;显示" style="rounded=0;whiteSpace=wrap;html=1;align=center;" parent="PMX6HYAyWHX9HIxOQywM-1" vertex="1">
          
          <mxGeometry x="270" y="280" width="40" height="80" as="geometry" />
          
        </mxCell>
        
        <mxCell id="PMX6HYAyWHX9HIxOQywM-11" style="edgeStyle=orthogonalEdgeStyle;rounded=0;orthogonalLoop=1;jettySize=auto;html=1;exitX=0.5;exitY=1;exitDx=0;exitDy=0;entryX=0.5;entryY=0;entryDx=0;entryDy=0;endArrow=none;endFill=0;" parent="PMX6HYAyWHX9HIxOQywM-1" source="PMX6HYAyWHX9HIxOQywM-10" target="PMX6HYAyWHX9HIxOQywM-2" edge="1">
          
          <mxGeometry relative="1" as="geometry" />
          
        </mxCell>
        
        <mxCell id="PMX6HYAyWHX9HIxOQywM-10" value="仓库存储信息管理模块" style="rounded=0;whiteSpace=wrap;html=1;align=center;" parent="PMX6HYAyWHX9HIxOQywM-1" vertex="1">
          
          <mxGeometry x="140" width="160" height="40" as="geometry" />
          
        </mxCell>
        
      </root>
      
    </mxGraphModel>
    
  </diagram>
  <diagram id="gF2N7CTiyIgHl5YsRbTx" name="样品信息借出管理模块">
    
    <mxGraphModel dx="1422" dy="747" grid="1" gridSize="10" guides="1" tooltips="1" connect="1" arrows="1" fold="1" page="1" pageScale="1" pageWidth="1169" pageHeight="827" math="0" shadow="0">
      
      <root>
        
        <mxCell id="nibBA06wig0-snlMtLil-0" />
        
        <mxCell id="nibBA06wig0-snlMtLil-1" parent="nibBA06wig0-snlMtLil-0" />
        
        <mxCell id="OuEWBvMzxqm6FkGFGAbK-0" value="查询&lt;br&gt;样品&lt;br&gt;信息" style="rounded=0;whiteSpace=wrap;html=1;align=center;" parent="nibBA06wig0-snlMtLil-1" vertex="1">
          
          <mxGeometry y="120" width="40" height="80" as="geometry" />
          
        </mxCell>
        
        <mxCell id="OuEWBvMzxqm6FkGFGAbK-8" style="edgeStyle=orthogonalEdgeStyle;rounded=0;orthogonalLoop=1;jettySize=auto;html=1;exitX=0.5;exitY=0;exitDx=0;exitDy=0;endArrow=none;endFill=0;" parent="nibBA06wig0-snlMtLil-1" source="OuEWBvMzxqm6FkGFGAbK-1" edge="1">
          
          <mxGeometry relative="1" as="geometry">
            
            <mxPoint x="140" y="40" as="targetPoint" />
            
          </mxGeometry>
          
        </mxCell>
        
        <mxCell id="OuEWBvMzxqm6FkGFGAbK-1" value="借出&lt;br&gt;土壤&lt;br&gt;样品" style="rounded=0;whiteSpace=wrap;html=1;align=center;" parent="nibBA06wig0-snlMtLil-1" vertex="1">
          
          <mxGeometry x="120" y="120" width="40" height="80" as="geometry" />
          
        </mxCell>
        
        <mxCell id="OuEWBvMzxqm6FkGFGAbK-9" style="edgeStyle=orthogonalEdgeStyle;rounded=0;orthogonalLoop=1;jettySize=auto;html=1;exitX=0.5;exitY=0;exitDx=0;exitDy=0;endArrow=none;endFill=0;" parent="nibBA06wig0-snlMtLil-1" source="OuEWBvMzxqm6FkGFGAbK-2" edge="1">
          
          <mxGeometry relative="1" as="geometry">
            
            <mxPoint x="140" y="40" as="targetPoint" />
            
          </mxGeometry>
          
        </mxCell>
        
        <mxCell id="OuEWBvMzxqm6FkGFGAbK-10" style="edgeStyle=orthogonalEdgeStyle;rounded=0;orthogonalLoop=1;jettySize=auto;html=1;exitX=0.5;exitY=1;exitDx=0;exitDy=0;entryX=0.5;entryY=0;entryDx=0;entryDy=0;endArrow=none;endFill=0;" parent="nibBA06wig0-snlMtLil-1" source="OuEWBvMzxqm6FkGFGAbK-2" target="OuEWBvMzxqm6FkGFGAbK-4" edge="1">
          
          <mxGeometry relative="1" as="geometry" />
          
        </mxCell>
        
        <mxCell id="OuEWBvMzxqm6FkGFGAbK-2" value="借出&lt;br&gt;记录&lt;br&gt;管理" style="rounded=0;whiteSpace=wrap;html=1;align=center;" parent="nibBA06wig0-snlMtLil-1" vertex="1">
          
          <mxGeometry x="240" y="120" width="40" height="80" as="geometry" />
          
        </mxCell>
        
        <mxCell id="OuEWBvMzxqm6FkGFGAbK-11" style="edgeStyle=orthogonalEdgeStyle;rounded=0;orthogonalLoop=1;jettySize=auto;html=1;exitX=0.5;exitY=0;exitDx=0;exitDy=0;endArrow=none;endFill=0;" parent="nibBA06wig0-snlMtLil-1" source="OuEWBvMzxqm6FkGFGAbK-3" edge="1">
          
          <mxGeometry relative="1" as="geometry">
            
            <mxPoint x="260" y="200" as="targetPoint" />
            
          </mxGeometry>
          
        </mxCell>
        
        <mxCell id="OuEWBvMzxqm6FkGFGAbK-3" value="删除&lt;br&gt;借出&lt;br&gt;记录" style="rounded=0;whiteSpace=wrap;html=1;align=center;" parent="nibBA06wig0-snlMtLil-1" vertex="1">
          
          <mxGeometry x="240" y="280" width="40" height="80" as="geometry" />
          
        </mxCell>
        
        <mxCell id="OuEWBvMzxqm6FkGFGAbK-4" value="查询&lt;br&gt;借出&lt;br&gt;记录" style="rounded=0;whiteSpace=wrap;html=1;align=center;" parent="nibBA06wig0-snlMtLil-1" vertex="1">
          
          <mxGeometry x="180" y="280" width="40" height="80" as="geometry" />
          
        </mxCell>
        
        <mxCell id="OuEWBvMzxqm6FkGFGAbK-12" style="edgeStyle=orthogonalEdgeStyle;rounded=0;orthogonalLoop=1;jettySize=auto;html=1;exitX=0.5;exitY=0;exitDx=0;exitDy=0;entryX=0.5;entryY=1;entryDx=0;entryDy=0;endArrow=none;endFill=0;" parent="nibBA06wig0-snlMtLil-1" source="OuEWBvMzxqm6FkGFGAbK-5" target="OuEWBvMzxqm6FkGFGAbK-2" edge="1">
          
          <mxGeometry relative="1" as="geometry" />
          
        </mxCell>
        
        <mxCell id="OuEWBvMzxqm6FkGFGAbK-5" value="修改&lt;br&gt;借出&lt;br&gt;记录" style="rounded=0;whiteSpace=wrap;html=1;align=center;" parent="nibBA06wig0-snlMtLil-1" vertex="1">
          
          <mxGeometry x="300" y="280" width="40" height="80" as="geometry" />
          
        </mxCell>
        
        <mxCell id="OuEWBvMzxqm6FkGFGAbK-7" style="edgeStyle=orthogonalEdgeStyle;rounded=0;orthogonalLoop=1;jettySize=auto;html=1;exitX=0.5;exitY=1;exitDx=0;exitDy=0;entryX=0.5;entryY=0;entryDx=0;entryDy=0;endArrow=none;endFill=0;" parent="nibBA06wig0-snlMtLil-1" source="OuEWBvMzxqm6FkGFGAbK-6" target="OuEWBvMzxqm6FkGFGAbK-0" edge="1">
          
          <mxGeometry relative="1" as="geometry" />
          
        </mxCell>
        
        <mxCell id="OuEWBvMzxqm6FkGFGAbK-6" value="样品信息借出管理模块" style="rounded=0;whiteSpace=wrap;html=1;align=center;" parent="nibBA06wig0-snlMtLil-1" vertex="1">
          
          <mxGeometry x="70" width="140" height="40" as="geometry" />
          
        </mxCell>
        
      </root>
      
    </mxGraphModel>
    
  </diagram>
  <diagram id="r4TvuC4aiMf6C9OE6-1j" name="土壤样品库管理系统">
    
    <mxGraphModel dx="1422" dy="747" grid="1" gridSize="10" guides="1" tooltips="1" connect="1" arrows="1" fold="1" page="1" pageScale="1" pageWidth="1169" pageHeight="827" math="0" shadow="0">
      
      <root>
        
        <mxCell id="mNuRpi-Y55zXEyKoLXDD-0" />
        
        <mxCell id="mNuRpi-Y55zXEyKoLXDD-1" parent="mNuRpi-Y55zXEyKoLXDD-0" />
        
        <mxCell id="dTrc3mqz48sjtZ1OqrxU-0" value="土壤样&lt;br&gt;品信息&lt;br&gt;管理&lt;br&gt;模块" style="rounded=0;whiteSpace=wrap;html=1;align=center;" parent="mNuRpi-Y55zXEyKoLXDD-1" vertex="1">
          
          <mxGeometry y="120" width="50" height="90" as="geometry" />
          
        </mxCell>
        
        <mxCell id="dTrc3mqz48sjtZ1OqrxU-10" style="edgeStyle=orthogonalEdgeStyle;rounded=0;orthogonalLoop=1;jettySize=auto;html=1;exitX=0.5;exitY=0;exitDx=0;exitDy=0;endArrow=none;endFill=0;" parent="mNuRpi-Y55zXEyKoLXDD-1" source="dTrc3mqz48sjtZ1OqrxU-1" edge="1">
          
          <mxGeometry relative="1" as="geometry">
            
            <mxPoint x="115" y="80" as="targetPoint" />
            
          </mxGeometry>
          
        </mxCell>
        
        <mxCell id="dTrc3mqz48sjtZ1OqrxU-1" value="仓库存&lt;br&gt;储信息&lt;br&gt;管理&lt;br&gt;模块" style="rounded=0;whiteSpace=wrap;html=1;align=center;" parent="mNuRpi-Y55zXEyKoLXDD-1" vertex="1">
          
          <mxGeometry x="90" y="120" width="50" height="90" as="geometry" />
          
        </mxCell>
        
        <mxCell id="dTrc3mqz48sjtZ1OqrxU-11" style="edgeStyle=orthogonalEdgeStyle;rounded=0;orthogonalLoop=1;jettySize=auto;html=1;exitX=0.5;exitY=0;exitDx=0;exitDy=0;endArrow=none;endFill=0;" parent="mNuRpi-Y55zXEyKoLXDD-1" source="dTrc3mqz48sjtZ1OqrxU-2" edge="1">
          
          <mxGeometry relative="1" as="geometry">
            
            <mxPoint x="205" y="80" as="targetPoint" />
            
          </mxGeometry>
          
        </mxCell>
        
        <mxCell id="dTrc3mqz48sjtZ1OqrxU-2" value="样品借&lt;br&gt;出信息&lt;br&gt;管理&lt;br&gt;模块" style="rounded=0;whiteSpace=wrap;html=1;align=center;" parent="mNuRpi-Y55zXEyKoLXDD-1" vertex="1">
          
          <mxGeometry x="180" y="120" width="50" height="90" as="geometry" />
          
        </mxCell>
        
        <mxCell id="dTrc3mqz48sjtZ1OqrxU-12" style="edgeStyle=orthogonalEdgeStyle;rounded=0;orthogonalLoop=1;jettySize=auto;html=1;exitX=0.5;exitY=0;exitDx=0;exitDy=0;endArrow=none;endFill=0;" parent="mNuRpi-Y55zXEyKoLXDD-1" source="dTrc3mqz48sjtZ1OqrxU-4" edge="1">
          
          <mxGeometry relative="1" as="geometry">
            
            <mxPoint x="295" y="80" as="targetPoint" />
            
          </mxGeometry>
          
        </mxCell>
        
        <mxCell id="dTrc3mqz48sjtZ1OqrxU-4" value="货箱/货架信息&lt;br&gt;管理&lt;br&gt;模块" style="rounded=0;whiteSpace=wrap;html=1;align=center;" parent="mNuRpi-Y55zXEyKoLXDD-1" vertex="1">
          
          <mxGeometry x="270" y="120" width="50" height="90" as="geometry" />
          
        </mxCell>
        
        <mxCell id="dTrc3mqz48sjtZ1OqrxU-13" style="edgeStyle=orthogonalEdgeStyle;rounded=0;orthogonalLoop=1;jettySize=auto;html=1;exitX=0.5;exitY=0;exitDx=0;exitDy=0;endArrow=none;endFill=0;" parent="mNuRpi-Y55zXEyKoLXDD-1" source="dTrc3mqz48sjtZ1OqrxU-5" edge="1">
          
          <mxGeometry relative="1" as="geometry">
            
            <mxPoint x="385" y="80" as="targetPoint" />
            
          </mxGeometry>
          
        </mxCell>
        
        <mxCell id="dTrc3mqz48sjtZ1OqrxU-5" value="3D样品&lt;br&gt;库模块" style="rounded=0;whiteSpace=wrap;html=1;align=center;" parent="mNuRpi-Y55zXEyKoLXDD-1" vertex="1">
          
          <mxGeometry x="360" y="120" width="50" height="90" as="geometry" />
          
        </mxCell>
        
        <mxCell id="dTrc3mqz48sjtZ1OqrxU-6" value="样品库&lt;br&gt;监控信息管理模块" style="rounded=0;whiteSpace=wrap;html=1;align=center;" parent="mNuRpi-Y55zXEyKoLXDD-1" vertex="1">
          
          <mxGeometry x="450" y="120" width="50" height="90" as="geometry" />
          
        </mxCell>
        
        <mxCell id="dTrc3mqz48sjtZ1OqrxU-8" style="edgeStyle=orthogonalEdgeStyle;rounded=0;orthogonalLoop=1;jettySize=auto;html=1;exitX=0.5;exitY=1;exitDx=0;exitDy=0;entryX=0.5;entryY=0;entryDx=0;entryDy=0;endArrow=none;endFill=0;" parent="mNuRpi-Y55zXEyKoLXDD-1" source="dTrc3mqz48sjtZ1OqrxU-7" target="dTrc3mqz48sjtZ1OqrxU-0" edge="1">
          
          <mxGeometry relative="1" as="geometry" />
          
        </mxCell>
        
        <mxCell id="dTrc3mqz48sjtZ1OqrxU-9" style="edgeStyle=orthogonalEdgeStyle;rounded=0;orthogonalLoop=1;jettySize=auto;html=1;exitX=0.5;exitY=1;exitDx=0;exitDy=0;entryX=0.5;entryY=0;entryDx=0;entryDy=0;endArrow=none;endFill=0;" parent="mNuRpi-Y55zXEyKoLXDD-1" source="dTrc3mqz48sjtZ1OqrxU-7" target="dTrc3mqz48sjtZ1OqrxU-6" edge="1">
          
          <mxGeometry relative="1" as="geometry" />
          
        </mxCell>
        
        <mxCell id="dTrc3mqz48sjtZ1OqrxU-7" value="土壤样品库管理系统" style="rounded=0;whiteSpace=wrap;html=1;align=center;" parent="mNuRpi-Y55zXEyKoLXDD-1" vertex="1">
          
          <mxGeometry x="180" width="140" height="40" as="geometry" />
          
        </mxCell>
        
      </root>
      
    </mxGraphModel>
    
  </diagram>
  <diagram id="mbf6WhRM2NTEDNHj5MEB" name="3D样品库模块">
    <mxGraphModel dx="1422" dy="747" grid="1" gridSize="10" guides="1" tooltips="1" connect="1" arrows="1" fold="1" page="1" pageScale="1" pageWidth="1169" pageHeight="827" math="0" shadow="0">
      <root>
        <mxCell id="RiPgaoNaGi_C0Jhd2C0w-0" />
        <mxCell id="RiPgaoNaGi_C0Jhd2C0w-1" parent="RiPgaoNaGi_C0Jhd2C0w-0" />
        <mxCell id="1LqRxv6hhNVIduOCJxWd-0" value="土壤&lt;br&gt;样品&lt;br&gt;位置&lt;br&gt;显示" style="rounded=0;whiteSpace=wrap;html=1;align=center;" parent="RiPgaoNaGi_C0Jhd2C0w-1" vertex="1">
          <mxGeometry y="160" width="40" height="100" as="geometry" />
        </mxCell>
        <mxCell id="1LqRxv6hhNVIduOCJxWd-7" style="edgeStyle=orthogonalEdgeStyle;rounded=0;orthogonalLoop=1;jettySize=auto;html=1;exitX=0.5;exitY=0;exitDx=0;exitDy=0;endArrow=none;endFill=0;entryX=0.5;entryY=1;entryDx=0;entryDy=0;" parent="RiPgaoNaGi_C0Jhd2C0w-1" source="1LqRxv6hhNVIduOCJxWd-1" target="1LqRxv6hhNVIduOCJxWd-3" edge="1">
          <mxGeometry relative="1" as="geometry">
            <mxPoint x="80" y="120" as="targetPoint" />
          </mxGeometry>
        </mxCell>
        <mxCell id="1LqRxv6hhNVIduOCJxWd-1" value="样品&lt;br&gt;状态&lt;br&gt;显示&lt;br&gt;信息" style="rounded=0;whiteSpace=wrap;html=1;align=center;" parent="RiPgaoNaGi_C0Jhd2C0w-1" vertex="1">
          <mxGeometry x="70" y="160" width="40" height="100" as="geometry" />
        </mxCell>
        <mxCell id="1LqRxv6hhNVIduOCJxWd-2" value="点击&lt;br&gt;显示&lt;br&gt;位置&lt;br&gt;信息" style="rounded=0;whiteSpace=wrap;html=1;align=center;" parent="RiPgaoNaGi_C0Jhd2C0w-1" vertex="1">
          <mxGeometry x="140" y="160" width="40" height="100" as="geometry" />
        </mxCell>
        <mxCell id="1LqRxv6hhNVIduOCJxWd-4" style="edgeStyle=orthogonalEdgeStyle;rounded=0;orthogonalLoop=1;jettySize=auto;html=1;exitX=0.5;exitY=1;exitDx=0;exitDy=0;entryX=0.5;entryY=0;entryDx=0;entryDy=0;endArrow=none;endFill=0;" parent="RiPgaoNaGi_C0Jhd2C0w-1" source="1LqRxv6hhNVIduOCJxWd-3" target="1LqRxv6hhNVIduOCJxWd-0" edge="1">
          <mxGeometry relative="1" as="geometry" />
        </mxCell>
        <mxCell id="1LqRxv6hhNVIduOCJxWd-6" style="edgeStyle=orthogonalEdgeStyle;rounded=0;orthogonalLoop=1;jettySize=auto;html=1;exitX=0.5;exitY=1;exitDx=0;exitDy=0;entryX=0.5;entryY=0;entryDx=0;entryDy=0;endArrow=none;endFill=0;" parent="RiPgaoNaGi_C0Jhd2C0w-1" source="1LqRxv6hhNVIduOCJxWd-3" target="1LqRxv6hhNVIduOCJxWd-2" edge="1">
          <mxGeometry relative="1" as="geometry" />
        </mxCell>
        <mxCell id="1LqRxv6hhNVIduOCJxWd-3" value="仓库展示" style="rounded=0;whiteSpace=wrap;html=1;align=center;" parent="RiPgaoNaGi_C0Jhd2C0w-1" vertex="1">
          <mxGeometry x="20" y="80" width="140" height="40" as="geometry" />
        </mxCell>
        <mxCell id="1LqRxv6hhNVIduOCJxWd-8" value="样品&lt;br&gt;信息&lt;br&gt;查询" style="rounded=0;whiteSpace=wrap;html=1;align=center;" parent="RiPgaoNaGi_C0Jhd2C0w-1" vertex="1">
          <mxGeometry x="260" y="160" width="40" height="100" as="geometry" />
        </mxCell>
        <mxCell id="1LqRxv6hhNVIduOCJxWd-9" style="edgeStyle=orthogonalEdgeStyle;rounded=0;orthogonalLoop=1;jettySize=auto;html=1;exitX=0.5;exitY=0;exitDx=0;exitDy=0;endArrow=none;endFill=0;entryX=0.5;entryY=1;entryDx=0;entryDy=0;" parent="RiPgaoNaGi_C0Jhd2C0w-1" source="1LqRxv6hhNVIduOCJxWd-10" target="1LqRxv6hhNVIduOCJxWd-14" edge="1">
          <mxGeometry relative="1" as="geometry">
            <mxPoint x="320" y="120" as="targetPoint" />
          </mxGeometry>
        </mxCell>
        <mxCell id="1LqRxv6hhNVIduOCJxWd-18" style="edgeStyle=orthogonalEdgeStyle;rounded=0;orthogonalLoop=1;jettySize=auto;html=1;exitX=0.5;exitY=1;exitDx=0;exitDy=0;entryX=0.5;entryY=0;entryDx=0;entryDy=0;endArrow=none;endFill=0;" parent="RiPgaoNaGi_C0Jhd2C0w-1" source="1LqRxv6hhNVIduOCJxWd-10" target="1LqRxv6hhNVIduOCJxWd-16" edge="1">
          <mxGeometry relative="1" as="geometry" />
        </mxCell>
        <mxCell id="1LqRxv6hhNVIduOCJxWd-10" value="镜头&lt;br&gt;控制" style="rounded=0;whiteSpace=wrap;html=1;align=center;" parent="RiPgaoNaGi_C0Jhd2C0w-1" vertex="1">
          <mxGeometry x="330" y="160" width="40" height="100" as="geometry" />
        </mxCell>
        <mxCell id="1LqRxv6hhNVIduOCJxWd-11" value="键盘&lt;br&gt;控制&lt;br&gt;移动" style="rounded=0;whiteSpace=wrap;html=1;align=center;" parent="RiPgaoNaGi_C0Jhd2C0w-1" vertex="1">
          <mxGeometry x="400" y="160" width="40" height="100" as="geometry" />
        </mxCell>
        <mxCell id="1LqRxv6hhNVIduOCJxWd-12" style="edgeStyle=orthogonalEdgeStyle;rounded=0;orthogonalLoop=1;jettySize=auto;html=1;exitX=0.5;exitY=1;exitDx=0;exitDy=0;entryX=0.5;entryY=0;entryDx=0;entryDy=0;endArrow=none;endFill=0;" parent="RiPgaoNaGi_C0Jhd2C0w-1" source="1LqRxv6hhNVIduOCJxWd-14" target="1LqRxv6hhNVIduOCJxWd-8" edge="1">
          <mxGeometry relative="1" as="geometry" />
        </mxCell>
        <mxCell id="1LqRxv6hhNVIduOCJxWd-13" style="edgeStyle=orthogonalEdgeStyle;rounded=0;orthogonalLoop=1;jettySize=auto;html=1;exitX=0.5;exitY=1;exitDx=0;exitDy=0;entryX=0.5;entryY=0;entryDx=0;entryDy=0;endArrow=none;endFill=0;" parent="RiPgaoNaGi_C0Jhd2C0w-1" source="1LqRxv6hhNVIduOCJxWd-14" target="1LqRxv6hhNVIduOCJxWd-11" edge="1">
          <mxGeometry relative="1" as="geometry" />
        </mxCell>
        <mxCell id="1LqRxv6hhNVIduOCJxWd-23" style="edgeStyle=orthogonalEdgeStyle;rounded=0;orthogonalLoop=1;jettySize=auto;html=1;exitX=0.5;exitY=0;exitDx=0;exitDy=0;endArrow=none;endFill=0;" parent="RiPgaoNaGi_C0Jhd2C0w-1" source="1LqRxv6hhNVIduOCJxWd-14" edge="1">
          <mxGeometry relative="1" as="geometry">
            <mxPoint x="220" y="40" as="targetPoint" />
          </mxGeometry>
        </mxCell>
        <mxCell id="1LqRxv6hhNVIduOCJxWd-14" value="其他" style="rounded=0;whiteSpace=wrap;html=1;align=center;" parent="RiPgaoNaGi_C0Jhd2C0w-1" vertex="1">
          <mxGeometry x="280" y="80" width="140" height="40" as="geometry" />
        </mxCell>
        <mxCell id="1LqRxv6hhNVIduOCJxWd-20" style="edgeStyle=orthogonalEdgeStyle;rounded=0;orthogonalLoop=1;jettySize=auto;html=1;exitX=0.5;exitY=0;exitDx=0;exitDy=0;endArrow=none;endFill=0;" parent="RiPgaoNaGi_C0Jhd2C0w-1" source="1LqRxv6hhNVIduOCJxWd-15" edge="1">
          <mxGeometry relative="1" as="geometry">
            <mxPoint x="350" y="260" as="targetPoint" />
          </mxGeometry>
        </mxCell>
        <mxCell id="1LqRxv6hhNVIduOCJxWd-15" value="镜头&lt;br&gt;切换&lt;br&gt;与&lt;br&gt;锁定" style="rounded=0;whiteSpace=wrap;html=1;align=center;" parent="RiPgaoNaGi_C0Jhd2C0w-1" vertex="1">
          <mxGeometry x="330" y="300" width="40" height="100" as="geometry" />
        </mxCell>
        <mxCell id="1LqRxv6hhNVIduOCJxWd-16" value="第一&lt;br&gt;人称&lt;br&gt;视角&lt;br&gt;镜头" style="rounded=0;whiteSpace=wrap;html=1;align=center;" parent="RiPgaoNaGi_C0Jhd2C0w-1" vertex="1">
          <mxGeometry x="280" y="300" width="40" height="100" as="geometry" />
        </mxCell>
        <mxCell id="1LqRxv6hhNVIduOCJxWd-19" style="edgeStyle=orthogonalEdgeStyle;rounded=0;orthogonalLoop=1;jettySize=auto;html=1;exitX=0.5;exitY=0;exitDx=0;exitDy=0;endArrow=none;endFill=0;" parent="RiPgaoNaGi_C0Jhd2C0w-1" source="1LqRxv6hhNVIduOCJxWd-17" edge="1">
          <mxGeometry relative="1" as="geometry">
            <mxPoint x="350" y="260" as="targetPoint" />
          </mxGeometry>
        </mxCell>
        <mxCell id="1LqRxv6hhNVIduOCJxWd-17" value="第三&lt;br&gt;人称&lt;br&gt;视角&lt;br&gt;镜头" style="rounded=0;whiteSpace=wrap;html=1;align=center;" parent="RiPgaoNaGi_C0Jhd2C0w-1" vertex="1">
          <mxGeometry x="380" y="300" width="40" height="100" as="geometry" />
        </mxCell>
        <mxCell id="1LqRxv6hhNVIduOCJxWd-22" style="edgeStyle=orthogonalEdgeStyle;rounded=0;orthogonalLoop=1;jettySize=auto;html=1;exitX=0.5;exitY=1;exitDx=0;exitDy=0;entryX=0.5;entryY=0;entryDx=0;entryDy=0;endArrow=none;endFill=0;" parent="RiPgaoNaGi_C0Jhd2C0w-1" source="1LqRxv6hhNVIduOCJxWd-21" target="1LqRxv6hhNVIduOCJxWd-3" edge="1">
          <mxGeometry relative="1" as="geometry" />
        </mxCell>
        <mxCell id="1LqRxv6hhNVIduOCJxWd-21" value="3D样品库模块" style="rounded=0;whiteSpace=wrap;html=1;align=center;" parent="RiPgaoNaGi_C0Jhd2C0w-1" vertex="1">
          <mxGeometry x="150" width="140" height="40" as="geometry" />
        </mxCell>
      </root>
    </mxGraphModel>
  </diagram>
  <diagram id="R75E2dA-rUNVN59SoHnP" name="货箱/货架信息管理模块">
    <mxGraphModel dx="1422" dy="747" grid="1" gridSize="10" guides="1" tooltips="1" connect="1" arrows="1" fold="1" page="1" pageScale="1" pageWidth="1169" pageHeight="827" math="0" shadow="0">
      <root>
        <mxCell id="m7oSo4LzK_TZi_biRDXN-0" />
        <mxCell id="m7oSo4LzK_TZi_biRDXN-1" parent="m7oSo4LzK_TZi_biRDXN-0" />
        <mxCell id="RtjIfy8MWFrnfHzLf8ih-0" value="查询&lt;br&gt;货箱&lt;br&gt;信息" style="rounded=0;whiteSpace=wrap;html=1;align=center;" parent="m7oSo4LzK_TZi_biRDXN-1" vertex="1">
          <mxGeometry y="160" width="40" height="100" as="geometry" />
        </mxCell>
        <mxCell id="X55gFmZn1Qjl1Nq0Dmi5-9" style="edgeStyle=orthogonalEdgeStyle;rounded=0;orthogonalLoop=1;jettySize=auto;html=1;exitX=0.5;exitY=0;exitDx=0;exitDy=0;endArrow=none;endFill=0;" parent="m7oSo4LzK_TZi_biRDXN-1" source="RtjIfy8MWFrnfHzLf8ih-1" edge="1">
          <mxGeometry relative="1" as="geometry">
            <mxPoint x="80" y="140" as="targetPoint" />
          </mxGeometry>
        </mxCell>
        <mxCell id="RtjIfy8MWFrnfHzLf8ih-1" value="添加&lt;br&gt;货箱&lt;br&gt;信息&lt;span style=&quot;color: rgba(0 , 0 , 0 , 0) ; font-family: monospace ; font-size: 0px ; white-space: nowrap&quot;&gt;%3CmxGraphModel%3E%3Croot%3E%3CmxCell%20id%3D%220%22%2F%3E%3CmxCell%20id%3D%221%22%20parent%3D%220%22%2F%3E%3CmxCell%20id%3D%222%22%20value%3D%22%E5%9C%9F%E5%A3%A4%26lt%3Bbr%26gt%3B%E6%A0%B7%E5%93%81%26lt%3Bbr%26gt%3B%E4%BD%8D%E7%BD%AE%26lt%3Bbr%26gt%3B%E6%98%BE%E7%A4%BA%22%20style%3D%22rounded%3D0%3BwhiteSpace%3Dwrap%3Bhtml%3D1%3Balign%3Dcenter%3B%22%20vertex%3D%221%22%20parent%3D%221%22%3E%3CmxGeometry%20y%3D%22160%22%20width%3D%2240%22%20height%3D%22100%22%20as%3D%22geometry%22%2F%3E%3C%2FmxCell%3E%3C%2Froot%3E%3C%2FmxGraphModel%3E&lt;/span&gt;" style="rounded=0;whiteSpace=wrap;html=1;align=center;" parent="m7oSo4LzK_TZi_biRDXN-1" vertex="1">
          <mxGeometry x="60" y="160" width="40" height="100" as="geometry" />
        </mxCell>
        <mxCell id="X55gFmZn1Qjl1Nq0Dmi5-8" style="edgeStyle=orthogonalEdgeStyle;rounded=0;orthogonalLoop=1;jettySize=auto;html=1;exitX=0.5;exitY=0;exitDx=0;exitDy=0;endArrow=none;endFill=0;" parent="m7oSo4LzK_TZi_biRDXN-1" source="RtjIfy8MWFrnfHzLf8ih-2" edge="1">
          <mxGeometry relative="1" as="geometry">
            <mxPoint x="140" y="140" as="targetPoint" />
          </mxGeometry>
        </mxCell>
        <mxCell id="RtjIfy8MWFrnfHzLf8ih-2" value="修改&lt;br&gt;货箱&lt;br&gt;信息" style="rounded=0;whiteSpace=wrap;html=1;align=center;" parent="m7oSo4LzK_TZi_biRDXN-1" vertex="1">
          <mxGeometry x="120" y="160" width="40" height="100" as="geometry" />
        </mxCell>
        <mxCell id="X55gFmZn1Qjl1Nq0Dmi5-7" style="edgeStyle=orthogonalEdgeStyle;rounded=0;orthogonalLoop=1;jettySize=auto;html=1;exitX=0.5;exitY=0;exitDx=0;exitDy=0;endArrow=none;endFill=0;" parent="m7oSo4LzK_TZi_biRDXN-1" source="RtjIfy8MWFrnfHzLf8ih-3" edge="1">
          <mxGeometry relative="1" as="geometry">
            <mxPoint x="110" y="120" as="targetPoint" />
          </mxGeometry>
        </mxCell>
        <mxCell id="RtjIfy8MWFrnfHzLf8ih-3" value="删除&lt;br&gt;货箱&lt;br&gt;信息" style="rounded=0;whiteSpace=wrap;html=1;align=center;" parent="m7oSo4LzK_TZi_biRDXN-1" vertex="1">
          <mxGeometry x="180" y="160" width="40" height="100" as="geometry" />
        </mxCell>
        <mxCell id="RtjIfy8MWFrnfHzLf8ih-4" value="查询&lt;br&gt;货架&lt;br&gt;信息" style="rounded=0;whiteSpace=wrap;html=1;align=center;" parent="m7oSo4LzK_TZi_biRDXN-1" vertex="1">
          <mxGeometry x="240" y="160" width="40" height="100" as="geometry" />
        </mxCell>
        <mxCell id="X55gFmZn1Qjl1Nq0Dmi5-12" style="edgeStyle=orthogonalEdgeStyle;rounded=0;orthogonalLoop=1;jettySize=auto;html=1;exitX=0.5;exitY=0;exitDx=0;exitDy=0;endArrow=none;endFill=0;" parent="m7oSo4LzK_TZi_biRDXN-1" source="RtjIfy8MWFrnfHzLf8ih-5" edge="1">
          <mxGeometry relative="1" as="geometry">
            <mxPoint x="320" y="140" as="targetPoint" />
          </mxGeometry>
        </mxCell>
        <mxCell id="RtjIfy8MWFrnfHzLf8ih-5" value="添加&lt;br&gt;货箱&lt;br&gt;信息" style="rounded=0;whiteSpace=wrap;html=1;align=center;" parent="m7oSo4LzK_TZi_biRDXN-1" vertex="1">
          <mxGeometry x="300" y="160" width="40" height="100" as="geometry" />
        </mxCell>
        <mxCell id="X55gFmZn1Qjl1Nq0Dmi5-13" style="edgeStyle=orthogonalEdgeStyle;rounded=0;orthogonalLoop=1;jettySize=auto;html=1;exitX=0.5;exitY=0;exitDx=0;exitDy=0;endArrow=none;endFill=0;" parent="m7oSo4LzK_TZi_biRDXN-1" source="RtjIfy8MWFrnfHzLf8ih-6" edge="1">
          <mxGeometry relative="1" as="geometry">
            <mxPoint x="380" y="140" as="targetPoint" />
          </mxGeometry>
        </mxCell>
        <mxCell id="RtjIfy8MWFrnfHzLf8ih-6" value="修改&lt;br&gt;货箱&lt;br&gt;信息" style="rounded=0;whiteSpace=wrap;html=1;align=center;" parent="m7oSo4LzK_TZi_biRDXN-1" vertex="1">
          <mxGeometry x="360" y="160" width="40" height="100" as="geometry" />
        </mxCell>
        <mxCell id="X55gFmZn1Qjl1Nq0Dmi5-11" style="edgeStyle=orthogonalEdgeStyle;rounded=0;orthogonalLoop=1;jettySize=auto;html=1;exitX=0.5;exitY=0;exitDx=0;exitDy=0;endArrow=none;endFill=0;" parent="m7oSo4LzK_TZi_biRDXN-1" source="RtjIfy8MWFrnfHzLf8ih-7" edge="1">
          <mxGeometry relative="1" as="geometry">
            <mxPoint x="350" y="120" as="targetPoint" />
          </mxGeometry>
        </mxCell>
        <mxCell id="RtjIfy8MWFrnfHzLf8ih-7" value="删除&lt;br&gt;货箱&lt;br&gt;信息" style="rounded=0;whiteSpace=wrap;html=1;align=center;" parent="m7oSo4LzK_TZi_biRDXN-1" vertex="1">
          <mxGeometry x="420" y="160" width="40" height="100" as="geometry" />
        </mxCell>
        <mxCell id="X55gFmZn1Qjl1Nq0Dmi5-6" style="edgeStyle=orthogonalEdgeStyle;rounded=0;orthogonalLoop=1;jettySize=auto;html=1;exitX=0.5;exitY=1;exitDx=0;exitDy=0;entryX=0.5;entryY=0;entryDx=0;entryDy=0;endArrow=none;endFill=0;" parent="m7oSo4LzK_TZi_biRDXN-1" source="X55gFmZn1Qjl1Nq0Dmi5-0" target="RtjIfy8MWFrnfHzLf8ih-0" edge="1">
          <mxGeometry relative="1" as="geometry" />
        </mxCell>
        <mxCell id="X55gFmZn1Qjl1Nq0Dmi5-0" value="货箱信息管理" style="rounded=0;whiteSpace=wrap;html=1;align=center;" parent="m7oSo4LzK_TZi_biRDXN-1" vertex="1">
          <mxGeometry x="50" y="80" width="120" height="40" as="geometry" />
        </mxCell>
        <mxCell id="X55gFmZn1Qjl1Nq0Dmi5-5" style="edgeStyle=orthogonalEdgeStyle;rounded=0;orthogonalLoop=1;jettySize=auto;html=1;exitX=0.5;exitY=0;exitDx=0;exitDy=0;endArrow=none;endFill=0;" parent="m7oSo4LzK_TZi_biRDXN-1" source="X55gFmZn1Qjl1Nq0Dmi5-2" edge="1">
          <mxGeometry relative="1" as="geometry">
            <mxPoint x="230" y="40" as="targetPoint" />
          </mxGeometry>
        </mxCell>
        <mxCell id="X55gFmZn1Qjl1Nq0Dmi5-10" style="edgeStyle=orthogonalEdgeStyle;rounded=0;orthogonalLoop=1;jettySize=auto;html=1;exitX=0.5;exitY=1;exitDx=0;exitDy=0;entryX=0.5;entryY=0;entryDx=0;entryDy=0;endArrow=none;endFill=0;" parent="m7oSo4LzK_TZi_biRDXN-1" source="X55gFmZn1Qjl1Nq0Dmi5-2" target="RtjIfy8MWFrnfHzLf8ih-4" edge="1">
          <mxGeometry relative="1" as="geometry" />
        </mxCell>
        <mxCell id="X55gFmZn1Qjl1Nq0Dmi5-2" value="货架信息管理" style="rounded=0;whiteSpace=wrap;html=1;align=center;" parent="m7oSo4LzK_TZi_biRDXN-1" vertex="1">
          <mxGeometry x="290" y="80" width="120" height="40" as="geometry" />
        </mxCell>
        <mxCell id="X55gFmZn1Qjl1Nq0Dmi5-4" style="edgeStyle=orthogonalEdgeStyle;rounded=0;orthogonalLoop=1;jettySize=auto;html=1;exitX=0.5;exitY=1;exitDx=0;exitDy=0;entryX=0.5;entryY=0;entryDx=0;entryDy=0;endArrow=none;endFill=0;" parent="m7oSo4LzK_TZi_biRDXN-1" source="X55gFmZn1Qjl1Nq0Dmi5-3" target="X55gFmZn1Qjl1Nq0Dmi5-0" edge="1">
          <mxGeometry relative="1" as="geometry" />
        </mxCell>
        <mxCell id="X55gFmZn1Qjl1Nq0Dmi5-3" value="货箱/货架信息管理模块" style="rounded=0;whiteSpace=wrap;html=1;align=center;" parent="m7oSo4LzK_TZi_biRDXN-1" vertex="1">
          <mxGeometry x="150" width="160" height="40" as="geometry" />
        </mxCell>
      </root>
    </mxGraphModel>
  </diagram>
  <diagram id="GbC5xhMUM7O5CjXq2zt3" name="土壤样品信息管理模块">
    <mxGraphModel dx="1422" dy="747" grid="1" gridSize="10" guides="1" tooltips="1" connect="1" arrows="1" fold="1" page="1" pageScale="1" pageWidth="1169" pageHeight="827" math="0" shadow="0">
      <root>
        <mxCell id="o41noSr48AK9Vsq8vCMD-0" />
        <mxCell id="o41noSr48AK9Vsq8vCMD-1" parent="o41noSr48AK9Vsq8vCMD-0" />
        <mxCell id="9PsCyWBQlo1ggQYvQFVc-0" value="详细&lt;br&gt;信息&lt;br&gt;展示" style="rounded=0;whiteSpace=wrap;html=1;align=center;" parent="o41noSr48AK9Vsq8vCMD-1" vertex="1">
          <mxGeometry y="260" width="40" height="80" as="geometry" />
        </mxCell>
        <mxCell id="9PsCyWBQlo1ggQYvQFVc-7" style="edgeStyle=orthogonalEdgeStyle;rounded=0;orthogonalLoop=1;jettySize=auto;html=1;exitX=0.5;exitY=0;exitDx=0;exitDy=0;endArrow=none;endFill=0;" parent="o41noSr48AK9Vsq8vCMD-1" source="9PsCyWBQlo1ggQYvQFVc-1" edge="1">
          <mxGeometry relative="1" as="geometry">
            <mxPoint x="50" y="200" as="targetPoint" />
          </mxGeometry>
        </mxCell>
        <mxCell id="9PsCyWBQlo1ggQYvQFVc-1" value="组合&lt;br&gt;条件&lt;br&gt;查询" style="rounded=0;whiteSpace=wrap;html=1;align=center;" parent="o41noSr48AK9Vsq8vCMD-1" vertex="1">
          <mxGeometry x="60" y="260" width="40" height="80" as="geometry" />
        </mxCell>
        <mxCell id="9PsCyWBQlo1ggQYvQFVc-2" value="样品&lt;br&gt;批量&lt;br&gt;添加" style="rounded=0;whiteSpace=wrap;html=1;align=center;" parent="o41noSr48AK9Vsq8vCMD-1" vertex="1">
          <mxGeometry x="110" y="260" width="40" height="80" as="geometry" />
        </mxCell>
        <mxCell id="9PsCyWBQlo1ggQYvQFVc-9" style="edgeStyle=orthogonalEdgeStyle;rounded=0;orthogonalLoop=1;jettySize=auto;html=1;exitX=0.5;exitY=0;exitDx=0;exitDy=0;endArrow=none;endFill=0;" parent="o41noSr48AK9Vsq8vCMD-1" source="9PsCyWBQlo1ggQYvQFVc-3" edge="1">
          <mxGeometry relative="1" as="geometry">
            <mxPoint x="160" y="200" as="targetPoint" />
          </mxGeometry>
        </mxCell>
        <mxCell id="9PsCyWBQlo1ggQYvQFVc-3" value="样品&lt;br&gt;单独&lt;br&gt;添加" style="rounded=0;whiteSpace=wrap;html=1;align=center;" parent="o41noSr48AK9Vsq8vCMD-1" vertex="1">
          <mxGeometry x="170" y="260" width="40" height="80" as="geometry" />
        </mxCell>
        <mxCell id="9PsCyWBQlo1ggQYvQFVc-6" style="edgeStyle=orthogonalEdgeStyle;rounded=0;orthogonalLoop=1;jettySize=auto;html=1;exitX=0.5;exitY=1;exitDx=0;exitDy=0;entryX=0.5;entryY=0;entryDx=0;entryDy=0;endArrow=none;endFill=0;" parent="o41noSr48AK9Vsq8vCMD-1" source="9PsCyWBQlo1ggQYvQFVc-4" target="9PsCyWBQlo1ggQYvQFVc-0" edge="1">
          <mxGeometry relative="1" as="geometry" />
        </mxCell>
        <mxCell id="9PsCyWBQlo1ggQYvQFVc-4" value="土壤样品信息查询" style="rounded=0;whiteSpace=wrap;html=1;align=center;" parent="o41noSr48AK9Vsq8vCMD-1" vertex="1">
          <mxGeometry x="30" y="120" width="40" height="80" as="geometry" />
        </mxCell>
        <mxCell id="9PsCyWBQlo1ggQYvQFVc-8" style="edgeStyle=orthogonalEdgeStyle;rounded=0;orthogonalLoop=1;jettySize=auto;html=1;exitX=0.5;exitY=1;exitDx=0;exitDy=0;entryX=0.5;entryY=0;entryDx=0;entryDy=0;endArrow=none;endFill=0;" parent="o41noSr48AK9Vsq8vCMD-1" source="9PsCyWBQlo1ggQYvQFVc-5" target="9PsCyWBQlo1ggQYvQFVc-2" edge="1">
          <mxGeometry relative="1" as="geometry" />
        </mxCell>
        <mxCell id="YlbpKM4mgg7VkwiFWV6K-3" style="edgeStyle=orthogonalEdgeStyle;rounded=0;orthogonalLoop=1;jettySize=auto;html=1;exitX=0.5;exitY=0;exitDx=0;exitDy=0;endArrow=none;endFill=0;" parent="o41noSr48AK9Vsq8vCMD-1" source="9PsCyWBQlo1ggQYvQFVc-5" edge="1">
          <mxGeometry relative="1" as="geometry">
            <mxPoint x="160" y="80" as="targetPoint" />
          </mxGeometry>
        </mxCell>
        <mxCell id="9PsCyWBQlo1ggQYvQFVc-5" value="土壤样品信息添加" style="rounded=0;whiteSpace=wrap;html=1;align=center;" parent="o41noSr48AK9Vsq8vCMD-1" vertex="1">
          <mxGeometry x="140" y="120" width="40" height="80" as="geometry" />
        </mxCell>
        <mxCell id="YlbpKM4mgg7VkwiFWV6K-4" style="edgeStyle=orthogonalEdgeStyle;rounded=0;orthogonalLoop=1;jettySize=auto;html=1;exitX=0.5;exitY=0;exitDx=0;exitDy=0;endArrow=none;endFill=0;" parent="o41noSr48AK9Vsq8vCMD-1" source="9PsCyWBQlo1ggQYvQFVc-10" edge="1">
          <mxGeometry relative="1" as="geometry">
            <mxPoint x="270" y="80" as="targetPoint" />
          </mxGeometry>
        </mxCell>
        <mxCell id="9PsCyWBQlo1ggQYvQFVc-10" value="土壤样品信息删除" style="rounded=0;whiteSpace=wrap;html=1;align=center;" parent="o41noSr48AK9Vsq8vCMD-1" vertex="1">
          <mxGeometry x="250" y="120" width="40" height="80" as="geometry" />
        </mxCell>
        <mxCell id="YlbpKM4mgg7VkwiFWV6K-2" style="edgeStyle=orthogonalEdgeStyle;rounded=0;orthogonalLoop=1;jettySize=auto;html=1;exitX=0.5;exitY=0;exitDx=0;exitDy=0;endArrow=none;endFill=0;entryX=0.5;entryY=1;entryDx=0;entryDy=0;" parent="o41noSr48AK9Vsq8vCMD-1" source="9PsCyWBQlo1ggQYvQFVc-11" target="YlbpKM4mgg7VkwiFWV6K-0" edge="1">
          <mxGeometry relative="1" as="geometry">
            <mxPoint x="210" y="40" as="targetPoint" />
          </mxGeometry>
        </mxCell>
        <mxCell id="9PsCyWBQlo1ggQYvQFVc-11" value="土壤样品信息修改" style="rounded=0;whiteSpace=wrap;html=1;align=center;" parent="o41noSr48AK9Vsq8vCMD-1" vertex="1">
          <mxGeometry x="360" y="120" width="40" height="80" as="geometry" />
        </mxCell>
        <mxCell id="YlbpKM4mgg7VkwiFWV6K-1" style="edgeStyle=orthogonalEdgeStyle;rounded=0;orthogonalLoop=1;jettySize=auto;html=1;exitX=0.5;exitY=1;exitDx=0;exitDy=0;endArrow=none;endFill=0;" parent="o41noSr48AK9Vsq8vCMD-1" source="YlbpKM4mgg7VkwiFWV6K-0" target="9PsCyWBQlo1ggQYvQFVc-4" edge="1">
          <mxGeometry relative="1" as="geometry" />
        </mxCell>
        <mxCell id="YlbpKM4mgg7VkwiFWV6K-0" value="土壤样品信息管理模块" style="rounded=0;whiteSpace=wrap;html=1;align=center;" parent="o41noSr48AK9Vsq8vCMD-1" vertex="1">
          <mxGeometry x="150" width="130" height="40" as="geometry" />
        </mxCell>
      </root>
    </mxGraphModel>
  </diagram>
  <diagram id="aSyJC-rcNLoPYkkc8h_c" name="视图View">
    <mxGraphModel dx="1422" dy="747" grid="1" gridSize="10" guides="1" tooltips="1" connect="1" arrows="1" fold="1" page="1" pageScale="1" pageWidth="1169" pageHeight="827" math="0" shadow="0">
      <root>
        <mxCell id="ntJwOjiSH1FEPHPHRGJI-0" />
        <mxCell id="ntJwOjiSH1FEPHPHRGJI-1" parent="ntJwOjiSH1FEPHPHRGJI-0" />
        <mxCell id="ntJwOjiSH1FEPHPHRGJI-11" style="edgeStyle=orthogonalEdgeStyle;shape=flexArrow;rounded=0;orthogonalLoop=1;jettySize=auto;html=1;exitX=1;exitY=0.5;exitDx=0;exitDy=0;entryX=0;entryY=0.5;entryDx=0;entryDy=0;startArrow=block;endArrow=block;endFill=0;" parent="ntJwOjiSH1FEPHPHRGJI-1" source="ntJwOjiSH1FEPHPHRGJI-2" target="ntJwOjiSH1FEPHPHRGJI-4" edge="1">
          <mxGeometry relative="1" as="geometry" />
        </mxCell>
        <mxCell id="ntJwOjiSH1FEPHPHRGJI-2" value="视图View" style="rounded=1;whiteSpace=wrap;html=1;align=center;" parent="ntJwOjiSH1FEPHPHRGJI-1" vertex="1">
          <mxGeometry x="40" y="70" width="120" height="50" as="geometry" />
        </mxCell>
        <mxCell id="ntJwOjiSH1FEPHPHRGJI-3" value="数据绑定&lt;br&gt;DataBinding" style="text;html=1;align=center;verticalAlign=middle;resizable=0;points=[];autosize=1;" parent="ntJwOjiSH1FEPHPHRGJI-1" vertex="1">
          <mxGeometry x="170" y="30" width="80" height="30" as="geometry" />
        </mxCell>
        <mxCell id="ntJwOjiSH1FEPHPHRGJI-9" style="edgeStyle=orthogonalEdgeStyle;shape=flexArrow;rounded=0;orthogonalLoop=1;jettySize=auto;html=1;exitX=1;exitY=0.5;exitDx=0;exitDy=0;entryX=0;entryY=0.5;entryDx=0;entryDy=0;startArrow=block;endArrow=block;endFill=0;" parent="ntJwOjiSH1FEPHPHRGJI-1" source="ntJwOjiSH1FEPHPHRGJI-4" target="ntJwOjiSH1FEPHPHRGJI-5" edge="1">
          <mxGeometry relative="1" as="geometry" />
        </mxCell>
        <mxCell id="ntJwOjiSH1FEPHPHRGJI-4" value="视图模型ViewModel" style="rounded=1;whiteSpace=wrap;html=1;align=center;" parent="ntJwOjiSH1FEPHPHRGJI-1" vertex="1">
          <mxGeometry x="260" y="70" width="120" height="50" as="geometry" />
        </mxCell>
        <mxCell id="ntJwOjiSH1FEPHPHRGJI-10" style="edgeStyle=orthogonalEdgeStyle;shape=flexArrow;rounded=0;orthogonalLoop=1;jettySize=auto;html=1;exitX=0.5;exitY=1;exitDx=0;exitDy=0;startArrow=block;endArrow=block;endFill=0;" parent="ntJwOjiSH1FEPHPHRGJI-1" source="ntJwOjiSH1FEPHPHRGJI-5" target="ntJwOjiSH1FEPHPHRGJI-6" edge="1">
          <mxGeometry relative="1" as="geometry" />
        </mxCell>
        <mxCell id="ntJwOjiSH1FEPHPHRGJI-5" value="模型Model" style="rounded=1;whiteSpace=wrap;html=1;align=center;" parent="ntJwOjiSH1FEPHPHRGJI-1" vertex="1">
          <mxGeometry x="480" y="70" width="120" height="50" as="geometry" />
        </mxCell>
        <mxCell id="ntJwOjiSH1FEPHPHRGJI-6" value="数据库" style="rounded=1;whiteSpace=wrap;html=1;align=center;" parent="ntJwOjiSH1FEPHPHRGJI-1" vertex="1">
          <mxGeometry x="480" y="190" width="120" height="50" as="geometry" />
        </mxCell>
      </root>
    </mxGraphModel>
  </diagram>
  <diagram id="W2p0PXHX7KARGqvB40jy" name="控制器">
    
    <mxGraphModel dx="1422" dy="747" grid="1" gridSize="10" guides="1" tooltips="1" connect="1" arrows="1" fold="1" page="1" pageScale="1" pageWidth="1169" pageHeight="827" math="0" shadow="0">
      
      <root>
        
        <mxCell id="DUvfRyHeoes5yTTrKslD-0" />
        
        <mxCell id="DUvfRyHeoes5yTTrKslD-1" parent="DUvfRyHeoes5yTTrKslD-0" />
        
        <mxCell id="8rrTgaRpIlstjdYx4d1O-3" style="rounded=0;orthogonalLoop=1;jettySize=auto;html=1;exitX=0;exitY=0.5;exitDx=0;exitDy=0;startArrow=none;endArrow=classic;endFill=1;startFill=0;entryX=0.5;entryY=0;entryDx=0;entryDy=0;" parent="DUvfRyHeoes5yTTrKslD-1" source="8rrTgaRpIlstjdYx4d1O-0" target="8rrTgaRpIlstjdYx4d1O-1" edge="1">
          
          <mxGeometry relative="1" as="geometry" />
          
        </mxCell>
        
        <mxCell id="8rrTgaRpIlstjdYx4d1O-4" style="edgeStyle=none;rounded=0;orthogonalLoop=1;jettySize=auto;html=1;exitX=1;exitY=0.5;exitDx=0;exitDy=0;entryX=0.5;entryY=0;entryDx=0;entryDy=0;startArrow=none;startFill=0;endArrow=classic;endFill=1;" parent="DUvfRyHeoes5yTTrKslD-1" source="8rrTgaRpIlstjdYx4d1O-0" target="8rrTgaRpIlstjdYx4d1O-2" edge="1">
          
          <mxGeometry relative="1" as="geometry" />
          
        </mxCell>
        
        <mxCell id="8rrTgaRpIlstjdYx4d1O-0" value="控制器&lt;br&gt;Controller" style="rounded=1;whiteSpace=wrap;html=1;align=center;" parent="DUvfRyHeoes5yTTrKslD-1" vertex="1">
          
          <mxGeometry x="130" y="10" width="120" height="60" as="geometry" />
          
        </mxCell>
        
        <mxCell id="8rrTgaRpIlstjdYx4d1O-5" style="edgeStyle=none;rounded=0;orthogonalLoop=1;jettySize=auto;html=1;exitX=1;exitY=0.5;exitDx=0;exitDy=0;entryX=0;entryY=0.5;entryDx=0;entryDy=0;startArrow=none;startFill=0;endArrow=classic;endFill=1;" parent="DUvfRyHeoes5yTTrKslD-1" source="8rrTgaRpIlstjdYx4d1O-1" target="8rrTgaRpIlstjdYx4d1O-2" edge="1">
          
          <mxGeometry relative="1" as="geometry" />
          
        </mxCell>
        
        <mxCell id="8rrTgaRpIlstjdYx4d1O-1" value="视图&lt;br&gt;View" style="rounded=1;whiteSpace=wrap;html=1;align=center;" parent="DUvfRyHeoes5yTTrKslD-1" vertex="1">
          
          <mxGeometry x="10" y="140" width="120" height="60" as="geometry" />
          
        </mxCell>
        
        <mxCell id="8rrTgaRpIlstjdYx4d1O-2" value="模型&lt;br&gt;Model" style="rounded=1;whiteSpace=wrap;html=1;align=center;" parent="DUvfRyHeoes5yTTrKslD-1" vertex="1">
          
          <mxGeometry x="250" y="140" width="120" height="60" as="geometry" />
          
        </mxCell>
        
      </root>
      
    </mxGraphModel>
    
  </diagram>
  <diagram id="Chue4MGTKjd1Fz-01mcv" name="货箱/货架信息管理子系统">
    
    <mxGraphModel dx="1422" dy="747" grid="1" gridSize="10" guides="1" tooltips="1" connect="1" arrows="1" fold="1" page="1" pageScale="1" pageWidth="1169" pageHeight="827" math="0" shadow="0">
      
      <root>
        
        <mxCell id="ZIwdmiUOiZ6nGfO6CuNt-0" />
        
        <mxCell id="ZIwdmiUOiZ6nGfO6CuNt-1" parent="ZIwdmiUOiZ6nGfO6CuNt-0" />
        
        <mxCell id="ZIwdmiUOiZ6nGfO6CuNt-43" value="" style="rounded=0;whiteSpace=wrap;html=1;align=center;fillColor=none;strokeColor=#000000;strokeWidth=2;" parent="ZIwdmiUOiZ6nGfO6CuNt-1" vertex="1">
          
          <mxGeometry x="170" y="10" width="570" height="620" as="geometry" />
          
        </mxCell>
        
        <mxCell id="ZIwdmiUOiZ6nGfO6CuNt-2" value="普通用户" style="shape=umlActor;verticalLabelPosition=bottom;labelBackgroundColor=#ffffff;verticalAlign=top;html=1;outlineConnect=0;align=center;" parent="ZIwdmiUOiZ6nGfO6CuNt-1" vertex="1">
          
          <mxGeometry x="10" y="90" width="40" height="80" as="geometry" />
          
        </mxCell>
        
        <mxCell id="ZIwdmiUOiZ6nGfO6CuNt-6" value="管理员用户" style="shape=umlActor;verticalLabelPosition=bottom;labelBackgroundColor=#ffffff;verticalAlign=top;html=1;outlineConnect=0;align=center;" parent="ZIwdmiUOiZ6nGfO6CuNt-1" vertex="1">
          
          <mxGeometry x="10" y="320" width="40" height="80" as="geometry" />
          
        </mxCell>
        
        <mxCell id="ZIwdmiUOiZ6nGfO6CuNt-22" style="edgeStyle=none;rounded=0;orthogonalLoop=1;jettySize=auto;html=1;exitX=0;exitY=0.5;exitDx=0;exitDy=0;startArrow=classic;startFill=1;endArrow=none;endFill=0;" parent="ZIwdmiUOiZ6nGfO6CuNt-1" source="ZIwdmiUOiZ6nGfO6CuNt-10" edge="1">
          
          <mxGeometry relative="1" as="geometry">
            
            <mxPoint x="60" y="130" as="targetPoint" />
            
          </mxGeometry>
          
        </mxCell>
        
        <mxCell id="ZIwdmiUOiZ6nGfO6CuNt-27" style="edgeStyle=none;rounded=0;orthogonalLoop=1;jettySize=auto;html=1;exitX=0;exitY=0.5;exitDx=0;exitDy=0;startArrow=classic;startFill=1;endArrow=none;endFill=0;" parent="ZIwdmiUOiZ6nGfO6CuNt-1" source="ZIwdmiUOiZ6nGfO6CuNt-10" edge="1">
          
          <mxGeometry relative="1" as="geometry">
            
            <mxPoint x="60" y="350" as="targetPoint" />
            
          </mxGeometry>
          
        </mxCell>
        
        <mxCell id="ZIwdmiUOiZ6nGfO6CuNt-10" value="货架信息查询" style="ellipse;whiteSpace=wrap;html=1;align=center;" parent="ZIwdmiUOiZ6nGfO6CuNt-1" vertex="1">
          
          <mxGeometry x="240" y="70" width="160" height="60" as="geometry" />
          
        </mxCell>
        
        <mxCell id="ZIwdmiUOiZ6nGfO6CuNt-23" style="edgeStyle=none;rounded=0;orthogonalLoop=1;jettySize=auto;html=1;exitX=0;exitY=0.5;exitDx=0;exitDy=0;startArrow=classic;startFill=1;endArrow=none;endFill=0;" parent="ZIwdmiUOiZ6nGfO6CuNt-1" source="ZIwdmiUOiZ6nGfO6CuNt-11" edge="1">
          
          <mxGeometry relative="1" as="geometry">
            
            <mxPoint x="60" y="130" as="targetPoint" />
            
          </mxGeometry>
          
        </mxCell>
        
        <mxCell id="ZIwdmiUOiZ6nGfO6CuNt-26" style="edgeStyle=none;rounded=0;orthogonalLoop=1;jettySize=auto;html=1;exitX=0;exitY=0.5;exitDx=0;exitDy=0;startArrow=classic;startFill=1;endArrow=none;endFill=0;" parent="ZIwdmiUOiZ6nGfO6CuNt-1" source="ZIwdmiUOiZ6nGfO6CuNt-11" edge="1">
          
          <mxGeometry relative="1" as="geometry">
            
            <mxPoint x="60" y="350" as="targetPoint" />
            
          </mxGeometry>
          
        </mxCell>
        
        <mxCell id="ZIwdmiUOiZ6nGfO6CuNt-11" value="货箱信息查询" style="ellipse;whiteSpace=wrap;html=1;align=center;" parent="ZIwdmiUOiZ6nGfO6CuNt-1" vertex="1">
          
          <mxGeometry x="240" y="190" width="160" height="60" as="geometry" />
          
        </mxCell>
        
        <mxCell id="ZIwdmiUOiZ6nGfO6CuNt-24" style="edgeStyle=none;rounded=0;orthogonalLoop=1;jettySize=auto;html=1;exitX=0;exitY=0.5;exitDx=0;exitDy=0;startArrow=classic;startFill=1;endArrow=none;endFill=0;" parent="ZIwdmiUOiZ6nGfO6CuNt-1" source="ZIwdmiUOiZ6nGfO6CuNt-12" edge="1">
          
          <mxGeometry relative="1" as="geometry">
            
            <mxPoint x="60" y="350" as="targetPoint" />
            
          </mxGeometry>
          
        </mxCell>
        
        <mxCell id="ZIwdmiUOiZ6nGfO6CuNt-30" style="edgeStyle=none;rounded=0;orthogonalLoop=1;jettySize=auto;html=1;exitX=1;exitY=0.5;exitDx=0;exitDy=0;entryX=0;entryY=0.5;entryDx=0;entryDy=0;startArrow=none;startFill=0;endArrow=block;endFill=0;dashed=1;endSize=10;" parent="ZIwdmiUOiZ6nGfO6CuNt-1" source="ZIwdmiUOiZ6nGfO6CuNt-12" target="ZIwdmiUOiZ6nGfO6CuNt-17" edge="1">
          
          <mxGeometry relative="1" as="geometry" />
          
        </mxCell>
        
        <mxCell id="ZIwdmiUOiZ6nGfO6CuNt-31" style="edgeStyle=none;rounded=0;orthogonalLoop=1;jettySize=auto;html=1;exitX=1;exitY=0.5;exitDx=0;exitDy=0;entryX=0;entryY=0.5;entryDx=0;entryDy=0;dashed=1;startArrow=none;startFill=0;endArrow=block;endFill=0;endSize=10;" parent="ZIwdmiUOiZ6nGfO6CuNt-1" source="ZIwdmiUOiZ6nGfO6CuNt-12" target="ZIwdmiUOiZ6nGfO6CuNt-18" edge="1">
          
          <mxGeometry relative="1" as="geometry" />
          
        </mxCell>
        
        <mxCell id="ZIwdmiUOiZ6nGfO6CuNt-32" style="edgeStyle=none;rounded=0;orthogonalLoop=1;jettySize=auto;html=1;exitX=1;exitY=0.5;exitDx=0;exitDy=0;entryX=0;entryY=0.5;entryDx=0;entryDy=0;dashed=1;startArrow=none;startFill=0;endArrow=block;endFill=0;endSize=10;" parent="ZIwdmiUOiZ6nGfO6CuNt-1" source="ZIwdmiUOiZ6nGfO6CuNt-12" target="ZIwdmiUOiZ6nGfO6CuNt-19" edge="1">
          
          <mxGeometry relative="1" as="geometry" />
          
        </mxCell>
        
        <mxCell id="ZIwdmiUOiZ6nGfO6CuNt-12" value="货箱信息管理" style="ellipse;whiteSpace=wrap;html=1;align=center;" parent="ZIwdmiUOiZ6nGfO6CuNt-1" vertex="1">
          
          <mxGeometry x="240" y="310" width="160" height="60" as="geometry" />
          
        </mxCell>
        
        <mxCell id="ZIwdmiUOiZ6nGfO6CuNt-25" style="edgeStyle=none;rounded=0;orthogonalLoop=1;jettySize=auto;html=1;exitX=0;exitY=0.5;exitDx=0;exitDy=0;startArrow=classic;startFill=1;endArrow=none;endFill=0;" parent="ZIwdmiUOiZ6nGfO6CuNt-1" source="ZIwdmiUOiZ6nGfO6CuNt-13" edge="1">
          
          <mxGeometry relative="1" as="geometry">
            
            <mxPoint x="60" y="350" as="targetPoint" />
            
          </mxGeometry>
          
        </mxCell>
        
        <mxCell id="ZIwdmiUOiZ6nGfO6CuNt-33" style="edgeStyle=none;rounded=0;orthogonalLoop=1;jettySize=auto;html=1;exitX=1;exitY=0.5;exitDx=0;exitDy=0;entryX=0;entryY=0.5;entryDx=0;entryDy=0;dashed=1;startArrow=none;startFill=0;endArrow=block;endFill=0;endSize=10;" parent="ZIwdmiUOiZ6nGfO6CuNt-1" source="ZIwdmiUOiZ6nGfO6CuNt-13" target="ZIwdmiUOiZ6nGfO6CuNt-14" edge="1">
          
          <mxGeometry relative="1" as="geometry" />
          
        </mxCell>
        
        <mxCell id="ZIwdmiUOiZ6nGfO6CuNt-34" style="edgeStyle=none;rounded=0;orthogonalLoop=1;jettySize=auto;html=1;exitX=1;exitY=0.5;exitDx=0;exitDy=0;entryX=0;entryY=0.5;entryDx=0;entryDy=0;dashed=1;startArrow=none;startFill=0;endArrow=block;endFill=0;endSize=10;" parent="ZIwdmiUOiZ6nGfO6CuNt-1" source="ZIwdmiUOiZ6nGfO6CuNt-13" target="ZIwdmiUOiZ6nGfO6CuNt-15" edge="1">
          
          <mxGeometry relative="1" as="geometry" />
          
        </mxCell>
        
        <mxCell id="ZIwdmiUOiZ6nGfO6CuNt-35" style="edgeStyle=none;rounded=0;orthogonalLoop=1;jettySize=auto;html=1;exitX=1;exitY=0.5;exitDx=0;exitDy=0;entryX=0;entryY=0.5;entryDx=0;entryDy=0;dashed=1;startArrow=none;startFill=0;endArrow=block;endFill=0;endSize=10;" parent="ZIwdmiUOiZ6nGfO6CuNt-1" source="ZIwdmiUOiZ6nGfO6CuNt-13" target="ZIwdmiUOiZ6nGfO6CuNt-16" edge="1">
          
          <mxGeometry relative="1" as="geometry" />
          
        </mxCell>
        
        <mxCell id="ZIwdmiUOiZ6nGfO6CuNt-13" value="货架信息管理" style="ellipse;whiteSpace=wrap;html=1;align=center;" parent="ZIwdmiUOiZ6nGfO6CuNt-1" vertex="1">
          
          <mxGeometry x="240" y="430" width="160" height="60" as="geometry" />
          
        </mxCell>
        
        <mxCell id="ZIwdmiUOiZ6nGfO6CuNt-14" value="货架信息添加" style="ellipse;whiteSpace=wrap;html=1;align=center;" parent="ZIwdmiUOiZ6nGfO6CuNt-1" vertex="1">
          
          <mxGeometry x="560" y="400" width="160" height="60" as="geometry" />
          
        </mxCell>
        
        <mxCell id="ZIwdmiUOiZ6nGfO6CuNt-15" value="货架信息删除" style="ellipse;whiteSpace=wrap;html=1;align=center;" parent="ZIwdmiUOiZ6nGfO6CuNt-1" vertex="1">
          
          <mxGeometry x="560" y="480" width="160" height="60" as="geometry" />
          
        </mxCell>
        
        <mxCell id="ZIwdmiUOiZ6nGfO6CuNt-16" value="货架信息修改" style="ellipse;whiteSpace=wrap;html=1;align=center;" parent="ZIwdmiUOiZ6nGfO6CuNt-1" vertex="1">
          
          <mxGeometry x="560" y="560" width="160" height="60" as="geometry" />
          
        </mxCell>
        
        <mxCell id="ZIwdmiUOiZ6nGfO6CuNt-17" value="货箱信息添加" style="ellipse;whiteSpace=wrap;html=1;align=center;" parent="ZIwdmiUOiZ6nGfO6CuNt-1" vertex="1">
          
          <mxGeometry x="560" y="130" width="160" height="60" as="geometry" />
          
        </mxCell>
        
        <mxCell id="ZIwdmiUOiZ6nGfO6CuNt-18" value="货箱信息删除" style="ellipse;whiteSpace=wrap;html=1;align=center;" parent="ZIwdmiUOiZ6nGfO6CuNt-1" vertex="1">
          
          <mxGeometry x="560" y="210" width="160" height="60" as="geometry" />
          
        </mxCell>
        
        <mxCell id="ZIwdmiUOiZ6nGfO6CuNt-19" value="货箱信息修改" style="ellipse;whiteSpace=wrap;html=1;align=center;" parent="ZIwdmiUOiZ6nGfO6CuNt-1" vertex="1">
          
          <mxGeometry x="560" y="290" width="160" height="60" as="geometry" />
          
        </mxCell>
        
        <mxCell id="ZIwdmiUOiZ6nGfO6CuNt-28" value="货箱/货架信息管理子系统" style="text;html=1;align=center;verticalAlign=middle;resizable=0;points=[];autosize=1;" parent="ZIwdmiUOiZ6nGfO6CuNt-1" vertex="1">
          
          <mxGeometry x="190" y="20" width="150" height="20" as="geometry" />
          
        </mxCell>
        
        <mxCell id="ZIwdmiUOiZ6nGfO6CuNt-36" value="&amp;lt;&amp;lt;include&amp;gt;&amp;gt;" style="text;html=1;align=center;verticalAlign=middle;resizable=0;points=[];autosize=1;" parent="ZIwdmiUOiZ6nGfO6CuNt-1" vertex="1">
          
          <mxGeometry x="430" y="210" width="80" height="20" as="geometry" />
          
        </mxCell>
        
        <mxCell id="ZIwdmiUOiZ6nGfO6CuNt-37" value="&amp;lt;&amp;lt;include&amp;gt;&amp;gt;" style="text;html=1;align=center;verticalAlign=middle;resizable=0;points=[];autosize=1;" parent="ZIwdmiUOiZ6nGfO6CuNt-1" vertex="1">
          
          <mxGeometry x="460" y="270" width="80" height="20" as="geometry" />
          
        </mxCell>
        
        <mxCell id="ZIwdmiUOiZ6nGfO6CuNt-39" value="&amp;lt;&amp;lt;include&amp;gt;&amp;gt;" style="text;html=1;align=center;verticalAlign=middle;resizable=0;points=[];autosize=1;" parent="ZIwdmiUOiZ6nGfO6CuNt-1" vertex="1">
          
          <mxGeometry x="450" y="330" width="80" height="20" as="geometry" />
          
        </mxCell>
        
        <mxCell id="ZIwdmiUOiZ6nGfO6CuNt-40" value="&amp;lt;&amp;lt;include&amp;gt;&amp;gt;" style="text;html=1;align=center;verticalAlign=middle;resizable=0;points=[];autosize=1;" parent="ZIwdmiUOiZ6nGfO6CuNt-1" vertex="1">
          
          <mxGeometry x="420" y="424" width="80" height="20" as="geometry" />
          
        </mxCell>
        
        <mxCell id="ZIwdmiUOiZ6nGfO6CuNt-41" value="&amp;lt;&amp;lt;include&amp;gt;&amp;gt;" style="text;html=1;align=center;verticalAlign=middle;resizable=0;points=[];autosize=1;" parent="ZIwdmiUOiZ6nGfO6CuNt-1" vertex="1">
          
          <mxGeometry x="470" y="480" width="80" height="20" as="geometry" />
          
        </mxCell>
        
        <mxCell id="ZIwdmiUOiZ6nGfO6CuNt-42" value="&amp;lt;&amp;lt;include&amp;gt;&amp;gt;" style="text;html=1;align=center;verticalAlign=middle;resizable=0;points=[];autosize=1;" parent="ZIwdmiUOiZ6nGfO6CuNt-1" vertex="1">
          
          <mxGeometry x="410" y="530" width="80" height="20" as="geometry" />
          
        </mxCell>
        
      </root>
      
    </mxGraphModel>
    
  </diagram>
  <diagram id="H9QhB0YuG3KI-zAb6SrG" name="土壤样品信息管理子系统1">
    
    <mxGraphModel dx="1422" dy="747" grid="1" gridSize="10" guides="1" tooltips="1" connect="1" arrows="1" fold="1" page="1" pageScale="1" pageWidth="1169" pageHeight="827" math="0" shadow="0">
      
      <root>
        
        <mxCell id="fowGqQimyK0QLWP-YL5X-0" />
        
        <mxCell id="fowGqQimyK0QLWP-YL5X-1" parent="fowGqQimyK0QLWP-YL5X-0" />
        
        <mxCell id="utR9AsVAEefE5Nw8OuF_-0" value="" style="rounded=0;whiteSpace=wrap;html=1;align=center;fillColor=none;strokeColor=#000000;strokeWidth=2;" parent="fowGqQimyK0QLWP-YL5X-1" vertex="1">
          
          <mxGeometry x="210" y="10" width="530" height="400" as="geometry" />
          
        </mxCell>
        
        <mxCell id="utR9AsVAEefE5Nw8OuF_-1" value="普通用户" style="shape=umlActor;verticalLabelPosition=bottom;labelBackgroundColor=#ffffff;verticalAlign=top;html=1;outlineConnect=0;align=center;" parent="fowGqQimyK0QLWP-YL5X-1" vertex="1">
          
          <mxGeometry x="10" y="60" width="40" height="80" as="geometry" />
          
        </mxCell>
        
        <mxCell id="utR9AsVAEefE5Nw8OuF_-2" value="管理员用户" style="shape=umlActor;verticalLabelPosition=bottom;labelBackgroundColor=#ffffff;verticalAlign=top;html=1;outlineConnect=0;align=center;" parent="fowGqQimyK0QLWP-YL5X-1" vertex="1">
          
          <mxGeometry x="10" y="210" width="40" height="80" as="geometry" />
          
        </mxCell>
        
        <mxCell id="utR9AsVAEefE5Nw8OuF_-5" value="样品信息查询" style="ellipse;whiteSpace=wrap;html=1;align=center;" parent="fowGqQimyK0QLWP-YL5X-1" vertex="1">
          
          <mxGeometry x="240" y="70" width="160" height="60" as="geometry" />
          
        </mxCell>
        
        <mxCell id="utR9AsVAEefE5Nw8OuF_-8" value="样品信息添加" style="ellipse;whiteSpace=wrap;html=1;align=center;" parent="fowGqQimyK0QLWP-YL5X-1" vertex="1">
          
          <mxGeometry x="240" y="150" width="160" height="60" as="geometry" />
          
        </mxCell>
        
        <mxCell id="utR9AsVAEefE5Nw8OuF_-10" style="edgeStyle=none;rounded=0;orthogonalLoop=1;jettySize=auto;html=1;exitX=1;exitY=0.5;exitDx=0;exitDy=0;entryX=0;entryY=0.5;entryDx=0;entryDy=0;startArrow=none;startFill=0;endArrow=block;endFill=0;dashed=1;jumpSize=6;endSize=10;" parent="fowGqQimyK0QLWP-YL5X-1" source="utR9AsVAEefE5Nw8OuF_-5" target="utR9AsVAEefE5Nw8OuF_-22" edge="1">
          
          <mxGeometry relative="1" as="geometry" />
          
        </mxCell>
        
        <mxCell id="utR9AsVAEefE5Nw8OuF_-13" value="样品信息修改" style="ellipse;whiteSpace=wrap;html=1;align=center;" parent="fowGqQimyK0QLWP-YL5X-1" vertex="1">
          
          <mxGeometry x="240" y="230" width="160" height="60" as="geometry" />
          
        </mxCell>
        
        <mxCell id="utR9AsVAEefE5Nw8OuF_-14" style="edgeStyle=none;rounded=0;orthogonalLoop=1;jettySize=auto;html=1;exitX=0;exitY=0.5;exitDx=0;exitDy=0;startArrow=classic;startFill=1;endArrow=none;endFill=0;" parent="fowGqQimyK0QLWP-YL5X-1" source="utR9AsVAEefE5Nw8OuF_-18" edge="1">
          
          <mxGeometry relative="1" as="geometry">
            
            <mxPoint x="60" y="240" as="targetPoint" />
            
          </mxGeometry>
          
        </mxCell>
        
        <mxCell id="utR9AsVAEefE5Nw8OuF_-18" value="样品信息删除" style="ellipse;whiteSpace=wrap;html=1;align=center;" parent="fowGqQimyK0QLWP-YL5X-1" vertex="1">
          
          <mxGeometry x="240" y="310" width="160" height="60" as="geometry" />
          
        </mxCell>
        
        <mxCell id="utR9AsVAEefE5Nw8OuF_-22" value="查看详细信息" style="ellipse;whiteSpace=wrap;html=1;align=center;" parent="fowGqQimyK0QLWP-YL5X-1" vertex="1">
          
          <mxGeometry x="560" y="70" width="160" height="60" as="geometry" />
          
        </mxCell>
        
        <mxCell id="utR9AsVAEefE5Nw8OuF_-25" value="土壤样品信息管理子系统" style="text;html=1;align=center;verticalAlign=middle;resizable=0;points=[];autosize=1;" parent="fowGqQimyK0QLWP-YL5X-1" vertex="1">
          
          <mxGeometry x="245" y="30" width="150" height="20" as="geometry" />
          
        </mxCell>
        
        <mxCell id="utR9AsVAEefE5Nw8OuF_-26" value="&amp;lt;&amp;lt;include&amp;gt;&amp;gt;" style="text;html=1;align=center;verticalAlign=middle;resizable=0;points=[];autosize=1;" parent="fowGqQimyK0QLWP-YL5X-1" vertex="1">
          
          <mxGeometry x="440" y="70" width="80" height="20" as="geometry" />
          
        </mxCell>
        
        <mxCell id="K7mIE_5oyzbQ3lcUc_R1-2" style="edgeStyle=none;rounded=0;orthogonalLoop=1;jettySize=auto;html=1;exitX=0;exitY=0.5;exitDx=0;exitDy=0;startArrow=classic;startFill=1;endArrow=none;endFill=0;" parent="fowGqQimyK0QLWP-YL5X-1" edge="1">
          
          <mxGeometry relative="1" as="geometry">
            
            <mxPoint x="60" y="240" as="targetPoint" />
            
            <mxPoint x="240" y="260" as="sourcePoint" />
            
          </mxGeometry>
          
        </mxCell>
        
        <mxCell id="K7mIE_5oyzbQ3lcUc_R1-3" style="edgeStyle=none;rounded=0;orthogonalLoop=1;jettySize=auto;html=1;startArrow=classic;startFill=1;endArrow=none;endFill=0;exitX=0;exitY=0.5;exitDx=0;exitDy=0;" parent="fowGqQimyK0QLWP-YL5X-1" source="utR9AsVAEefE5Nw8OuF_-8" edge="1">
          
          <mxGeometry relative="1" as="geometry">
            
            <mxPoint x="60" y="240" as="targetPoint" />
            
            <mxPoint x="260" y="360" as="sourcePoint" />
            
          </mxGeometry>
          
        </mxCell>
        
        <mxCell id="K7mIE_5oyzbQ3lcUc_R1-4" style="edgeStyle=none;rounded=0;orthogonalLoop=1;jettySize=auto;html=1;exitX=0;exitY=0.5;exitDx=0;exitDy=0;startArrow=classic;startFill=1;endArrow=none;endFill=0;" parent="fowGqQimyK0QLWP-YL5X-1" source="utR9AsVAEefE5Nw8OuF_-5" edge="1">
          
          <mxGeometry relative="1" as="geometry">
            
            <mxPoint x="60" y="240" as="targetPoint" />
            
            <mxPoint x="270" y="370" as="sourcePoint" />
            
          </mxGeometry>
          
        </mxCell>
        
        <mxCell id="K7mIE_5oyzbQ3lcUc_R1-5" style="edgeStyle=none;rounded=0;orthogonalLoop=1;jettySize=auto;html=1;startArrow=classic;startFill=1;endArrow=none;endFill=0;" parent="fowGqQimyK0QLWP-YL5X-1" edge="1">
          
          <mxGeometry relative="1" as="geometry">
            
            <mxPoint x="60" y="100" as="targetPoint" />
            
            <mxPoint x="240" y="100" as="sourcePoint" />
            
          </mxGeometry>
          
        </mxCell>
        
      </root>
      
    </mxGraphModel>
    
  </diagram>
  <diagram id="cz7HDPAxPpnOOKONZBEv" name="土壤样品信息管理子系统">
    
    <mxGraphModel dx="1422" dy="747" grid="1" gridSize="10" guides="1" tooltips="1" connect="1" arrows="1" fold="1" page="1" pageScale="1" pageWidth="1169" pageHeight="827" math="0" shadow="0">
      
      <root>
        
        <mxCell id="MFfiEfl61hUwexs5D3cs-0" />
        
        <mxCell id="MFfiEfl61hUwexs5D3cs-1" parent="MFfiEfl61hUwexs5D3cs-0" />
        
        <mxCell id="JlfRF14pOP7hQZn8LYXT-0" value="" style="rounded=0;whiteSpace=wrap;html=1;align=center;fillColor=none;strokeColor=#000000;strokeWidth=2;" parent="MFfiEfl61hUwexs5D3cs-1" vertex="1">
          
          <mxGeometry x="210" y="10" width="530" height="400" as="geometry" />
          
        </mxCell>
        
        <mxCell id="JlfRF14pOP7hQZn8LYXT-1" value="普通用户" style="shape=umlActor;verticalLabelPosition=bottom;labelBackgroundColor=#ffffff;verticalAlign=top;html=1;outlineConnect=0;align=center;" parent="MFfiEfl61hUwexs5D3cs-1" vertex="1">
          
          <mxGeometry x="10" y="60" width="40" height="80" as="geometry" />
          
        </mxCell>
        
        <mxCell id="JlfRF14pOP7hQZn8LYXT-2" value="管理员用户" style="shape=umlActor;verticalLabelPosition=bottom;labelBackgroundColor=#ffffff;verticalAlign=top;html=1;outlineConnect=0;align=center;" parent="MFfiEfl61hUwexs5D3cs-1" vertex="1">
          
          <mxGeometry x="10" y="210" width="40" height="80" as="geometry" />
          
        </mxCell>
        
        <mxCell id="JlfRF14pOP7hQZn8LYXT-3" value="样品信息查询" style="ellipse;whiteSpace=wrap;html=1;align=center;" parent="MFfiEfl61hUwexs5D3cs-1" vertex="1">
          
          <mxGeometry x="240" y="70" width="160" height="60" as="geometry" />
          
        </mxCell>
        
        <mxCell id="JlfRF14pOP7hQZn8LYXT-4" value="样品信息添加" style="ellipse;whiteSpace=wrap;html=1;align=center;" parent="MFfiEfl61hUwexs5D3cs-1" vertex="1">
          
          <mxGeometry x="240" y="150" width="160" height="60" as="geometry" />
          
        </mxCell>
        
        <mxCell id="JlfRF14pOP7hQZn8LYXT-5" style="edgeStyle=none;rounded=0;orthogonalLoop=1;jettySize=auto;html=1;exitX=1;exitY=0.5;exitDx=0;exitDy=0;entryX=0;entryY=0.5;entryDx=0;entryDy=0;startArrow=none;startFill=0;endArrow=classic;endFill=1;jumpSize=6;endSize=6;" parent="MFfiEfl61hUwexs5D3cs-1" source="JlfRF14pOP7hQZn8LYXT-3" target="JlfRF14pOP7hQZn8LYXT-9" edge="1">
          
          <mxGeometry relative="1" as="geometry" />
          
        </mxCell>
        
        <mxCell id="JlfRF14pOP7hQZn8LYXT-6" value="样品信息修改" style="ellipse;whiteSpace=wrap;html=1;align=center;" parent="MFfiEfl61hUwexs5D3cs-1" vertex="1">
          
          <mxGeometry x="240" y="230" width="160" height="60" as="geometry" />
          
        </mxCell>
        
        <mxCell id="JlfRF14pOP7hQZn8LYXT-7" style="edgeStyle=none;rounded=0;orthogonalLoop=1;jettySize=auto;html=1;exitX=0;exitY=0.5;exitDx=0;exitDy=0;startArrow=classic;startFill=1;endArrow=none;endFill=0;" parent="MFfiEfl61hUwexs5D3cs-1" source="JlfRF14pOP7hQZn8LYXT-8" edge="1">
          
          <mxGeometry relative="1" as="geometry">
            
            <mxPoint x="60" y="240" as="targetPoint" />
            
          </mxGeometry>
          
        </mxCell>
        
        <mxCell id="JlfRF14pOP7hQZn8LYXT-8" value="样品信息删除" style="ellipse;whiteSpace=wrap;html=1;align=center;" parent="MFfiEfl61hUwexs5D3cs-1" vertex="1">
          
          <mxGeometry x="240" y="310" width="160" height="60" as="geometry" />
          
        </mxCell>
        
        <mxCell id="JlfRF14pOP7hQZn8LYXT-9" value="查看详细信息" style="ellipse;whiteSpace=wrap;html=1;align=center;" parent="MFfiEfl61hUwexs5D3cs-1" vertex="1">
          
          <mxGeometry x="560" y="70" width="160" height="60" as="geometry" />
          
        </mxCell>
        
        <mxCell id="JlfRF14pOP7hQZn8LYXT-10" value="土壤样品信息管理子系统" style="text;html=1;align=center;verticalAlign=middle;resizable=0;points=[];autosize=1;" parent="MFfiEfl61hUwexs5D3cs-1" vertex="1">
          
          <mxGeometry x="245" y="30" width="150" height="20" as="geometry" />
          
        </mxCell>
        
        <mxCell id="JlfRF14pOP7hQZn8LYXT-11" value="&amp;lt;&amp;lt;include&amp;gt;&amp;gt;" style="text;html=1;align=center;verticalAlign=middle;resizable=0;points=[];autosize=1;" parent="MFfiEfl61hUwexs5D3cs-1" vertex="1">
          
          <mxGeometry x="440" y="70" width="80" height="20" as="geometry" />
          
        </mxCell>
        
        <mxCell id="JlfRF14pOP7hQZn8LYXT-12" style="edgeStyle=none;rounded=0;orthogonalLoop=1;jettySize=auto;html=1;exitX=0;exitY=0.5;exitDx=0;exitDy=0;startArrow=classic;startFill=1;endArrow=none;endFill=0;" parent="MFfiEfl61hUwexs5D3cs-1" edge="1">
          
          <mxGeometry relative="1" as="geometry">
            
            <mxPoint x="60" y="240" as="targetPoint" />
            
            <mxPoint x="240" y="260" as="sourcePoint" />
            
          </mxGeometry>
          
        </mxCell>
        
        <mxCell id="JlfRF14pOP7hQZn8LYXT-13" style="edgeStyle=none;rounded=0;orthogonalLoop=1;jettySize=auto;html=1;startArrow=classic;startFill=1;endArrow=none;endFill=0;exitX=0;exitY=0.5;exitDx=0;exitDy=0;" parent="MFfiEfl61hUwexs5D3cs-1" source="JlfRF14pOP7hQZn8LYXT-4" edge="1">
          
          <mxGeometry relative="1" as="geometry">
            
            <mxPoint x="60" y="240" as="targetPoint" />
            
            <mxPoint x="260" y="360" as="sourcePoint" />
            
          </mxGeometry>
          
        </mxCell>
        
        <mxCell id="JlfRF14pOP7hQZn8LYXT-14" style="edgeStyle=none;rounded=0;orthogonalLoop=1;jettySize=auto;html=1;exitX=0;exitY=0.5;exitDx=0;exitDy=0;startArrow=classic;startFill=1;endArrow=none;endFill=0;" parent="MFfiEfl61hUwexs5D3cs-1" source="JlfRF14pOP7hQZn8LYXT-3" edge="1">
          
          <mxGeometry relative="1" as="geometry">
            
            <mxPoint x="60" y="240" as="targetPoint" />
            
            <mxPoint x="270" y="370" as="sourcePoint" />
            
          </mxGeometry>
          
        </mxCell>
        
        <mxCell id="JlfRF14pOP7hQZn8LYXT-15" style="edgeStyle=none;rounded=0;orthogonalLoop=1;jettySize=auto;html=1;startArrow=classic;startFill=1;endArrow=none;endFill=0;" parent="MFfiEfl61hUwexs5D3cs-1" edge="1">
          
          <mxGeometry relative="1" as="geometry">
            
            <mxPoint x="60" y="100" as="targetPoint" />
            
            <mxPoint x="240" y="100" as="sourcePoint" />
            
          </mxGeometry>
          
        </mxCell>
        
      </root>
      
    </mxGraphModel>
    
  </diagram>
  <diagram id="MjRnZh5GytIUhEWic7k1" name="样品借出信息管理子系统">
    
    <mxGraphModel dx="1422" dy="747" grid="1" gridSize="10" guides="1" tooltips="1" connect="1" arrows="1" fold="1" page="1" pageScale="1" pageWidth="1169" pageHeight="827" math="0" shadow="0">
      
      <root>
        
        <mxCell id="RCG3rFW7TicU7ICK3U7C-0" />
        
        <mxCell id="RCG3rFW7TicU7ICK3U7C-1" parent="RCG3rFW7TicU7ICK3U7C-0" />
        
        <mxCell id="HSYc-U4TN5_uIsiXc0SW-0" value="" style="rounded=0;whiteSpace=wrap;html=1;align=center;fillColor=none;strokeColor=#000000;strokeWidth=2;" parent="RCG3rFW7TicU7ICK3U7C-1" vertex="1">
          
          <mxGeometry x="170" y="10" width="570" height="590" as="geometry" />
          
        </mxCell>
        
        <mxCell id="HSYc-U4TN5_uIsiXc0SW-1" value="普通用户" style="shape=umlActor;verticalLabelPosition=bottom;labelBackgroundColor=#ffffff;verticalAlign=top;html=1;outlineConnect=0;align=center;" parent="RCG3rFW7TicU7ICK3U7C-1" vertex="1">
          
          <mxGeometry x="10" y="90" width="40" height="80" as="geometry" />
          
        </mxCell>
        
        <mxCell id="HSYc-U4TN5_uIsiXc0SW-2" value="管理员用户" style="shape=umlActor;verticalLabelPosition=bottom;labelBackgroundColor=#ffffff;verticalAlign=top;html=1;outlineConnect=0;align=center;" parent="RCG3rFW7TicU7ICK3U7C-1" vertex="1">
          
          <mxGeometry x="10" y="320" width="40" height="80" as="geometry" />
          
        </mxCell>
        
        <mxCell id="HSYc-U4TN5_uIsiXc0SW-3" style="edgeStyle=none;rounded=0;orthogonalLoop=1;jettySize=auto;html=1;exitX=0;exitY=0.5;exitDx=0;exitDy=0;startArrow=classic;startFill=1;endArrow=none;endFill=0;" parent="RCG3rFW7TicU7ICK3U7C-1" source="HSYc-U4TN5_uIsiXc0SW-5" edge="1">
          
          <mxGeometry relative="1" as="geometry">
            
            <mxPoint x="60" y="130" as="targetPoint" />
            
          </mxGeometry>
          
        </mxCell>
        
        <mxCell id="HSYc-U4TN5_uIsiXc0SW-4" style="edgeStyle=none;rounded=0;orthogonalLoop=1;jettySize=auto;html=1;exitX=0;exitY=0.5;exitDx=0;exitDy=0;startArrow=classic;startFill=1;endArrow=none;endFill=0;" parent="RCG3rFW7TicU7ICK3U7C-1" source="HSYc-U4TN5_uIsiXc0SW-5" edge="1">
          
          <mxGeometry relative="1" as="geometry">
            
            <mxPoint x="60" y="350" as="targetPoint" />
            
          </mxGeometry>
          
        </mxCell>
        
        <mxCell id="HSYc-U4TN5_uIsiXc0SW-5" value="样品信息查询" style="ellipse;whiteSpace=wrap;html=1;align=center;" parent="RCG3rFW7TicU7ICK3U7C-1" vertex="1">
          
          <mxGeometry x="240" y="70" width="160" height="60" as="geometry" />
          
        </mxCell>
        
        <mxCell id="HSYc-U4TN5_uIsiXc0SW-6" style="edgeStyle=none;rounded=0;orthogonalLoop=1;jettySize=auto;html=1;exitX=0;exitY=0.5;exitDx=0;exitDy=0;startArrow=classic;startFill=1;endArrow=none;endFill=0;" parent="RCG3rFW7TicU7ICK3U7C-1" source="HSYc-U4TN5_uIsiXc0SW-8" edge="1">
          
          <mxGeometry relative="1" as="geometry">
            
            <mxPoint x="60" y="130" as="targetPoint" />
            
          </mxGeometry>
          
        </mxCell>
        
        <mxCell id="HSYc-U4TN5_uIsiXc0SW-7" style="edgeStyle=none;rounded=0;orthogonalLoop=1;jettySize=auto;html=1;exitX=0;exitY=0.5;exitDx=0;exitDy=0;startArrow=classic;startFill=1;endArrow=none;endFill=0;" parent="RCG3rFW7TicU7ICK3U7C-1" source="HSYc-U4TN5_uIsiXc0SW-8" edge="1">
          
          <mxGeometry relative="1" as="geometry">
            
            <mxPoint x="60" y="350" as="targetPoint" />
            
          </mxGeometry>
          
        </mxCell>
        
        <mxCell id="HSYc-U4TN5_uIsiXc0SW-8" value="借出样品" style="ellipse;whiteSpace=wrap;html=1;align=center;" parent="RCG3rFW7TicU7ICK3U7C-1" vertex="1">
          
          <mxGeometry x="240" y="190" width="160" height="60" as="geometry" />
          
        </mxCell>
        
        <mxCell id="HSYc-U4TN5_uIsiXc0SW-9" style="edgeStyle=none;rounded=0;orthogonalLoop=1;jettySize=auto;html=1;exitX=0;exitY=0.5;exitDx=0;exitDy=0;startArrow=classic;startFill=1;endArrow=none;endFill=0;" parent="RCG3rFW7TicU7ICK3U7C-1" source="HSYc-U4TN5_uIsiXc0SW-13" edge="1">
          
          <mxGeometry relative="1" as="geometry">
            
            <mxPoint x="60" y="350" as="targetPoint" />
            
          </mxGeometry>
          
        </mxCell>
        
        <mxCell id="HSYc-U4TN5_uIsiXc0SW-12" style="edgeStyle=none;rounded=0;orthogonalLoop=1;jettySize=auto;html=1;exitX=1;exitY=0.5;exitDx=0;exitDy=0;entryX=0;entryY=0.5;entryDx=0;entryDy=0;dashed=1;startArrow=none;startFill=0;endArrow=block;endFill=0;endSize=10;" parent="RCG3rFW7TicU7ICK3U7C-1" source="HSYc-U4TN5_uIsiXc0SW-8" target="HSYc-U4TN5_uIsiXc0SW-24" edge="1">
          
          <mxGeometry relative="1" as="geometry" />
          
        </mxCell>
        
        <mxCell id="HSYc-U4TN5_uIsiXc0SW-13" value="借出记录查询" style="ellipse;whiteSpace=wrap;html=1;align=center;" parent="RCG3rFW7TicU7ICK3U7C-1" vertex="1">
          
          <mxGeometry x="240" y="310" width="160" height="60" as="geometry" />
          
        </mxCell>
        
        <mxCell id="HSYc-U4TN5_uIsiXc0SW-14" style="edgeStyle=none;rounded=0;orthogonalLoop=1;jettySize=auto;html=1;exitX=0;exitY=0.5;exitDx=0;exitDy=0;startArrow=classic;startFill=1;endArrow=none;endFill=0;" parent="RCG3rFW7TicU7ICK3U7C-1" source="HSYc-U4TN5_uIsiXc0SW-18" edge="1">
          
          <mxGeometry relative="1" as="geometry">
            
            <mxPoint x="60" y="350" as="targetPoint" />
            
          </mxGeometry>
          
        </mxCell>
        
        <mxCell id="HSYc-U4TN5_uIsiXc0SW-15" style="edgeStyle=none;rounded=0;orthogonalLoop=1;jettySize=auto;html=1;exitX=1;exitY=0.5;exitDx=0;exitDy=0;entryX=0;entryY=0.5;entryDx=0;entryDy=0;dashed=1;startArrow=none;startFill=0;endArrow=block;endFill=0;endSize=10;" parent="RCG3rFW7TicU7ICK3U7C-1" source="HSYc-U4TN5_uIsiXc0SW-18" target="HSYc-U4TN5_uIsiXc0SW-19" edge="1">
          
          <mxGeometry relative="1" as="geometry" />
          
        </mxCell>
        
        <mxCell id="HSYc-U4TN5_uIsiXc0SW-16" style="edgeStyle=none;rounded=0;orthogonalLoop=1;jettySize=auto;html=1;exitX=1;exitY=0.5;exitDx=0;exitDy=0;entryX=0;entryY=0.5;entryDx=0;entryDy=0;dashed=1;startArrow=none;startFill=0;endArrow=block;endFill=0;endSize=10;" parent="RCG3rFW7TicU7ICK3U7C-1" source="HSYc-U4TN5_uIsiXc0SW-18" target="HSYc-U4TN5_uIsiXc0SW-20" edge="1">
          
          <mxGeometry relative="1" as="geometry" />
          
        </mxCell>
        
        <mxCell id="HSYc-U4TN5_uIsiXc0SW-17" style="edgeStyle=none;rounded=0;orthogonalLoop=1;jettySize=auto;html=1;exitX=1;exitY=0.5;exitDx=0;exitDy=0;entryX=0;entryY=0.5;entryDx=0;entryDy=0;dashed=1;startArrow=none;startFill=0;endArrow=block;endFill=0;endSize=10;" parent="RCG3rFW7TicU7ICK3U7C-1" source="HSYc-U4TN5_uIsiXc0SW-18" target="HSYc-U4TN5_uIsiXc0SW-21" edge="1">
          
          <mxGeometry relative="1" as="geometry" />
          
        </mxCell>
        
        <mxCell id="HSYc-U4TN5_uIsiXc0SW-18" value="借出记录管理" style="ellipse;whiteSpace=wrap;html=1;align=center;" parent="RCG3rFW7TicU7ICK3U7C-1" vertex="1">
          
          <mxGeometry x="240" y="430" width="160" height="60" as="geometry" />
          
        </mxCell>
        
        <mxCell id="HSYc-U4TN5_uIsiXc0SW-19" value="借出记录添加" style="ellipse;whiteSpace=wrap;html=1;align=center;" parent="RCG3rFW7TicU7ICK3U7C-1" vertex="1">
          
          <mxGeometry x="560" y="340" width="160" height="60" as="geometry" />
          
        </mxCell>
        
        <mxCell id="HSYc-U4TN5_uIsiXc0SW-20" value="借出记录删除" style="ellipse;whiteSpace=wrap;html=1;align=center;" parent="RCG3rFW7TicU7ICK3U7C-1" vertex="1">
          
          <mxGeometry x="560" y="430" width="160" height="60" as="geometry" />
          
        </mxCell>
        
        <mxCell id="HSYc-U4TN5_uIsiXc0SW-21" value="借出记录修改" style="ellipse;whiteSpace=wrap;html=1;align=center;" parent="RCG3rFW7TicU7ICK3U7C-1" vertex="1">
          
          <mxGeometry x="560" y="520" width="160" height="60" as="geometry" />
          
        </mxCell>
        
        <mxCell id="HSYc-U4TN5_uIsiXc0SW-24" value="借出信息登记" style="ellipse;whiteSpace=wrap;html=1;align=center;" parent="RCG3rFW7TicU7ICK3U7C-1" vertex="1">
          
          <mxGeometry x="570" y="190" width="160" height="60" as="geometry" />
          
        </mxCell>
        
        <mxCell id="HSYc-U4TN5_uIsiXc0SW-25" value="样品借出信息管理子系统" style="text;html=1;align=center;verticalAlign=middle;resizable=0;points=[];autosize=1;" parent="RCG3rFW7TicU7ICK3U7C-1" vertex="1">
          
          <mxGeometry x="200" y="20" width="150" height="20" as="geometry" />
          
        </mxCell>
        
        <mxCell id="HSYc-U4TN5_uIsiXc0SW-28" value="&amp;lt;&amp;lt;include&amp;gt;&amp;gt;" style="text;html=1;align=center;verticalAlign=middle;resizable=0;points=[];autosize=1;" parent="RCG3rFW7TicU7ICK3U7C-1" vertex="1">
          
          <mxGeometry x="440" y="190" width="80" height="20" as="geometry" />
          
        </mxCell>
        
        <mxCell id="HSYc-U4TN5_uIsiXc0SW-29" value="&amp;lt;&amp;lt;include&amp;gt;&amp;gt;" style="text;html=1;align=center;verticalAlign=middle;resizable=0;points=[];autosize=1;" parent="RCG3rFW7TicU7ICK3U7C-1" vertex="1">
          
          <mxGeometry x="420" y="394" width="80" height="20" as="geometry" />
          
        </mxCell>
        
        <mxCell id="HSYc-U4TN5_uIsiXc0SW-30" value="&amp;lt;&amp;lt;include&amp;gt;&amp;gt;" style="text;html=1;align=center;verticalAlign=middle;resizable=0;points=[];autosize=1;" parent="RCG3rFW7TicU7ICK3U7C-1" vertex="1">
          
          <mxGeometry x="450" y="440" width="80" height="20" as="geometry" />
          
        </mxCell>
        
        <mxCell id="HSYc-U4TN5_uIsiXc0SW-31" value="&amp;lt;&amp;lt;include&amp;gt;&amp;gt;" style="text;html=1;align=center;verticalAlign=middle;resizable=0;points=[];autosize=1;" parent="RCG3rFW7TicU7ICK3U7C-1" vertex="1">
          
          <mxGeometry x="415" y="510" width="80" height="20" as="geometry" />
          
        </mxCell>
        
      </root>
      
    </mxGraphModel>
    
  </diagram>
  <diagram id="jFQ91U2oY_w7NVXnHxLj" name="操作人员、样品库管理员流程">
    
    <mxGraphModel dx="1422" dy="747" grid="1" gridSize="10" guides="1" tooltips="1" connect="1" arrows="1" fold="1" page="1" pageScale="1" pageWidth="1169" pageHeight="827" math="0" shadow="0">
      
      <root>
        
        <mxCell id="rogO1z9pmJQJRkyu4SmI-0" />
        
        <mxCell id="rogO1z9pmJQJRkyu4SmI-1" parent="rogO1z9pmJQJRkyu4SmI-0" />
        
        <mxCell id="TAVaJNwQHs6vYDNbTp0_-13" style="edgeStyle=none;rounded=0;jumpSize=6;orthogonalLoop=1;jettySize=auto;html=1;exitX=1;exitY=0.5;exitDx=0;exitDy=0;entryX=0;entryY=0.5;entryDx=0;entryDy=0;startArrow=none;startFill=0;endArrow=classic;endFill=1;endSize=6;strokeWidth=1;" parent="rogO1z9pmJQJRkyu4SmI-1" source="G_P5W89PXqaPm4zHsvpy-0" target="G_P5W89PXqaPm4zHsvpy-70" edge="1">
          
          <mxGeometry relative="1" as="geometry" />
          
        </mxCell>
        
        <mxCell id="G_P5W89PXqaPm4zHsvpy-0" value="操作人员" style="ellipse;whiteSpace=wrap;html=1;aspect=fixed;strokeColor=#000000;strokeWidth=2;fillColor=none;align=center;" parent="rogO1z9pmJQJRkyu4SmI-1" vertex="1">
          
          <mxGeometry x="40" y="285" width="70" height="70" as="geometry" />
          
        </mxCell>
        
        <mxCell id="TAVaJNwQHs6vYDNbTp0_-22" style="edgeStyle=none;rounded=0;jumpSize=6;orthogonalLoop=1;jettySize=auto;html=1;exitX=0;exitY=0.5;exitDx=0;exitDy=0;entryX=1;entryY=0.5;entryDx=0;entryDy=0;startArrow=none;startFill=0;endArrow=classic;endFill=1;endSize=6;strokeWidth=1;" parent="rogO1z9pmJQJRkyu4SmI-1" source="G_P5W89PXqaPm4zHsvpy-33" target="TAVaJNwQHs6vYDNbTp0_-18" edge="1">
          
          <mxGeometry relative="1" as="geometry" />
          
        </mxCell>
        
        <mxCell id="G_P5W89PXqaPm4zHsvpy-33" value="样品库&lt;br&gt;管理员" style="ellipse;whiteSpace=wrap;html=1;aspect=fixed;strokeColor=#000000;strokeWidth=2;fillColor=none;align=center;" parent="rogO1z9pmJQJRkyu4SmI-1" vertex="1">
          
          <mxGeometry x="720" y="150" width="80" height="80" as="geometry" />
          
        </mxCell>
        
        <mxCell id="TAVaJNwQHs6vYDNbTp0_-24" style="edgeStyle=orthogonalEdgeStyle;rounded=0;jumpSize=6;orthogonalLoop=1;jettySize=auto;html=1;exitX=0;exitY=0.5;exitDx=0;exitDy=0;entryX=0.5;entryY=0;entryDx=0;entryDy=0;startArrow=none;startFill=0;endArrow=classic;endFill=1;endSize=6;strokeWidth=1;" parent="rogO1z9pmJQJRkyu4SmI-1" source="G_P5W89PXqaPm4zHsvpy-34" target="G_P5W89PXqaPm4zHsvpy-0" edge="1">
          
          <mxGeometry relative="1" as="geometry" />
          
        </mxCell>
        
        <mxCell id="G_P5W89PXqaPm4zHsvpy-34" value="土壤样品信息" style="shape=document;whiteSpace=wrap;html=1;boundedLbl=1;strokeColor=#000000;strokeWidth=2;fillColor=none;align=center;" parent="rogO1z9pmJQJRkyu4SmI-1" vertex="1">
          
          <mxGeometry x="170" y="160" width="100" height="60" as="geometry" />
          
        </mxCell>
        
        <mxCell id="G_P5W89PXqaPm4zHsvpy-35" style="edgeStyle=none;rounded=0;jumpSize=6;orthogonalLoop=1;jettySize=auto;html=1;exitX=1;exitY=0.5;exitDx=0;exitDy=0;startArrow=none;startFill=0;endArrow=classic;endFill=1;endSize=6;" parent="rogO1z9pmJQJRkyu4SmI-1" source="G_P5W89PXqaPm4zHsvpy-34" target="G_P5W89PXqaPm4zHsvpy-34" edge="1">
          
          <mxGeometry relative="1" as="geometry" />
          
        </mxCell>
        
        <mxCell id="TAVaJNwQHs6vYDNbTp0_-17" style="edgeStyle=none;rounded=0;jumpSize=6;orthogonalLoop=1;jettySize=auto;html=1;exitX=1;exitY=0.5;exitDx=0;exitDy=0;startArrow=none;startFill=0;endArrow=classic;endFill=1;endSize=6;strokeWidth=1;" parent="rogO1z9pmJQJRkyu4SmI-1" source="G_P5W89PXqaPm4zHsvpy-68" target="TAVaJNwQHs6vYDNbTp0_-11" edge="1">
          
          <mxGeometry relative="1" as="geometry" />
          
        </mxCell>
        
        <mxCell id="G_P5W89PXqaPm4zHsvpy-68" value="借出样品信息&lt;br&gt;登记表" style="shape=document;whiteSpace=wrap;html=1;boundedLbl=1;strokeColor=#000000;strokeWidth=2;fillColor=none;align=center;" parent="rogO1z9pmJQJRkyu4SmI-1" vertex="1">
          
          <mxGeometry x="330" y="290" width="100" height="60" as="geometry" />
          
        </mxCell>
        
        <mxCell id="TAVaJNwQHs6vYDNbTp0_-23" style="edgeStyle=orthogonalEdgeStyle;rounded=0;jumpSize=6;orthogonalLoop=1;jettySize=auto;html=1;exitX=1;exitY=0.5;exitDx=0;exitDy=0;entryX=0.5;entryY=0;entryDx=0;entryDy=0;startArrow=none;startFill=0;endArrow=classic;endFill=1;endSize=6;strokeWidth=1;" parent="rogO1z9pmJQJRkyu4SmI-1" source="G_P5W89PXqaPm4zHsvpy-69" target="G_P5W89PXqaPm4zHsvpy-33" edge="1">
          
          <mxGeometry relative="1" as="geometry" />
          
        </mxCell>
        
        <mxCell id="G_P5W89PXqaPm4zHsvpy-69" value="样品借出记录表" style="shape=document;whiteSpace=wrap;html=1;boundedLbl=1;strokeColor=#000000;strokeWidth=2;fillColor=none;align=center;" parent="rogO1z9pmJQJRkyu4SmI-1" vertex="1">
          
          <mxGeometry x="530" y="20" width="100" height="60" as="geometry" />
          
        </mxCell>
        
        <mxCell id="TAVaJNwQHs6vYDNbTp0_-14" style="edgeStyle=none;rounded=0;jumpSize=6;orthogonalLoop=1;jettySize=auto;html=1;exitX=0.5;exitY=0;exitDx=0;exitDy=0;startArrow=none;startFill=0;endArrow=classic;endFill=1;endSize=6;strokeWidth=1;" parent="rogO1z9pmJQJRkyu4SmI-1" source="G_P5W89PXqaPm4zHsvpy-70" target="G_P5W89PXqaPm4zHsvpy-34" edge="1">
          
          <mxGeometry relative="1" as="geometry" />
          
        </mxCell>
        
        <mxCell id="TAVaJNwQHs6vYDNbTp0_-16" style="edgeStyle=none;rounded=0;jumpSize=6;orthogonalLoop=1;jettySize=auto;html=1;exitX=1;exitY=0.5;exitDx=0;exitDy=0;entryX=0;entryY=0.5;entryDx=0;entryDy=0;startArrow=none;startFill=0;endArrow=classic;endFill=1;endSize=6;strokeWidth=1;" parent="rogO1z9pmJQJRkyu4SmI-1" source="G_P5W89PXqaPm4zHsvpy-70" target="G_P5W89PXqaPm4zHsvpy-68" edge="1">
          
          <mxGeometry relative="1" as="geometry" />
          
        </mxCell>
        
        <mxCell id="G_P5W89PXqaPm4zHsvpy-70" value="借出&lt;br&gt;样品&lt;br&gt;信息&lt;br&gt;请求" style="rounded=0;whiteSpace=wrap;html=1;strokeColor=#000000;strokeWidth=2;fillColor=none;align=center;" parent="rogO1z9pmJQJRkyu4SmI-1" vertex="1">
          
          <mxGeometry x="190" y="270" width="60" height="100" as="geometry" />
          
        </mxCell>
        
        <mxCell id="TAVaJNwQHs6vYDNbTp0_-1" value="" style="endArrow=none;html=1;strokeWidth=2;" parent="rogO1z9pmJQJRkyu4SmI-1" edge="1">
          
          <mxGeometry width="50" height="50" relative="1" as="geometry">
            
            <mxPoint x="140" y="420" as="sourcePoint" />
            
            <mxPoint x="300" y="420" as="targetPoint" />
            
          </mxGeometry>
          
        </mxCell>
        
        <mxCell id="TAVaJNwQHs6vYDNbTp0_-2" value="" style="endArrow=none;html=1;strokeWidth=2;" parent="rogO1z9pmJQJRkyu4SmI-1" edge="1">
          
          <mxGeometry width="50" height="50" relative="1" as="geometry">
            
            <mxPoint x="140" y="460" as="sourcePoint" />
            
            <mxPoint x="300" y="460" as="targetPoint" />
            
          </mxGeometry>
          
        </mxCell>
        
        <mxCell id="TAVaJNwQHs6vYDNbTp0_-3" value="" style="endArrow=none;html=1;strokeWidth=2;" parent="rogO1z9pmJQJRkyu4SmI-1" edge="1">
          
          <mxGeometry width="50" height="50" relative="1" as="geometry">
            
            <mxPoint x="140" y="420" as="sourcePoint" />
            
            <mxPoint x="140" y="460" as="targetPoint" />
            
          </mxGeometry>
          
        </mxCell>
        
        <mxCell id="TAVaJNwQHs6vYDNbTp0_-4" value="" style="endArrow=none;html=1;strokeWidth=1;" parent="rogO1z9pmJQJRkyu4SmI-1" edge="1">
          
          <mxGeometry width="50" height="50" relative="1" as="geometry">
            
            <mxPoint x="170" y="420" as="sourcePoint" />
            
            <mxPoint x="170" y="460" as="targetPoint" />
            
          </mxGeometry>
          
        </mxCell>
        
        <mxCell id="TAVaJNwQHs6vYDNbTp0_-15" style="edgeStyle=none;rounded=0;jumpSize=6;orthogonalLoop=1;jettySize=auto;html=1;exitX=0.5;exitY=0;exitDx=0;exitDy=0;entryX=0.5;entryY=1;entryDx=0;entryDy=0;startArrow=none;startFill=0;endArrow=classic;endFill=1;endSize=6;strokeWidth=1;" parent="rogO1z9pmJQJRkyu4SmI-1" source="TAVaJNwQHs6vYDNbTp0_-6" target="G_P5W89PXqaPm4zHsvpy-70" edge="1">
          
          <mxGeometry relative="1" as="geometry" />
          
        </mxCell>
        
        <mxCell id="TAVaJNwQHs6vYDNbTp0_-6" value="土壤样品信息" style="text;html=1;strokeColor=none;fillColor=none;align=center;verticalAlign=middle;whiteSpace=wrap;rounded=0;comic=0;" parent="rogO1z9pmJQJRkyu4SmI-1" vertex="1">
          
          <mxGeometry x="140" y="420" width="160" height="40" as="geometry" />
          
        </mxCell>
        
        <mxCell id="TAVaJNwQHs6vYDNbTp0_-7" value="" style="endArrow=none;html=1;strokeWidth=2;" parent="rogO1z9pmJQJRkyu4SmI-1" edge="1">
          
          <mxGeometry width="50" height="50" relative="1" as="geometry">
            
            <mxPoint x="500" y="299.5" as="sourcePoint" />
            
            <mxPoint x="660" y="299.5" as="targetPoint" />
            
          </mxGeometry>
          
        </mxCell>
        
        <mxCell id="TAVaJNwQHs6vYDNbTp0_-8" value="" style="endArrow=none;html=1;strokeWidth=2;" parent="rogO1z9pmJQJRkyu4SmI-1" edge="1">
          
          <mxGeometry width="50" height="50" relative="1" as="geometry">
            
            <mxPoint x="500" y="339.5" as="sourcePoint" />
            
            <mxPoint x="660" y="339.5" as="targetPoint" />
            
          </mxGeometry>
          
        </mxCell>
        
        <mxCell id="TAVaJNwQHs6vYDNbTp0_-9" value="" style="endArrow=none;html=1;strokeWidth=2;" parent="rogO1z9pmJQJRkyu4SmI-1" edge="1">
          
          <mxGeometry width="50" height="50" relative="1" as="geometry">
            
            <mxPoint x="500" y="299.5" as="sourcePoint" />
            
            <mxPoint x="500" y="339.5" as="targetPoint" />
            
          </mxGeometry>
          
        </mxCell>
        
        <mxCell id="TAVaJNwQHs6vYDNbTp0_-10" value="" style="endArrow=none;html=1;strokeWidth=1;" parent="rogO1z9pmJQJRkyu4SmI-1" edge="1">
          
          <mxGeometry width="50" height="50" relative="1" as="geometry">
            
            <mxPoint x="530" y="299.5" as="sourcePoint" />
            
            <mxPoint x="530" y="339.5" as="targetPoint" />
            
          </mxGeometry>
          
        </mxCell>
        
        <mxCell id="TAVaJNwQHs6vYDNbTp0_-19" style="edgeStyle=none;rounded=0;jumpSize=6;orthogonalLoop=1;jettySize=auto;html=1;exitX=0.5;exitY=0;exitDx=0;exitDy=0;startArrow=none;startFill=0;endArrow=classic;endFill=1;endSize=6;strokeWidth=1;entryX=0.5;entryY=1;entryDx=0;entryDy=0;" parent="rogO1z9pmJQJRkyu4SmI-1" source="TAVaJNwQHs6vYDNbTp0_-11" target="TAVaJNwQHs6vYDNbTp0_-18" edge="1">
          
          <mxGeometry relative="1" as="geometry">
            
            <mxPoint x="580" y="280" as="targetPoint" />
            
          </mxGeometry>
          
        </mxCell>
        
        <mxCell id="TAVaJNwQHs6vYDNbTp0_-11" value="样品借出记录" style="text;html=1;strokeColor=none;fillColor=none;align=center;verticalAlign=middle;whiteSpace=wrap;rounded=0;comic=0;" parent="rogO1z9pmJQJRkyu4SmI-1" vertex="1">
          
          <mxGeometry x="500" y="299.5" width="160" height="40" as="geometry" />
          
        </mxCell>
        
        <mxCell id="TAVaJNwQHs6vYDNbTp0_-21" style="edgeStyle=none;rounded=0;jumpSize=6;orthogonalLoop=1;jettySize=auto;html=1;exitX=0.5;exitY=0;exitDx=0;exitDy=0;startArrow=none;startFill=0;endArrow=classic;endFill=1;endSize=6;strokeWidth=1;" parent="rogO1z9pmJQJRkyu4SmI-1" source="TAVaJNwQHs6vYDNbTp0_-18" target="G_P5W89PXqaPm4zHsvpy-69" edge="1">
          
          <mxGeometry relative="1" as="geometry" />
          
        </mxCell>
        
        <mxCell id="TAVaJNwQHs6vYDNbTp0_-18" value="样品&lt;br&gt;借出&lt;br&gt;记录&lt;br&gt;管理" style="rounded=0;whiteSpace=wrap;html=1;strokeColor=#000000;strokeWidth=2;fillColor=none;align=center;" parent="rogO1z9pmJQJRkyu4SmI-1" vertex="1">
          
          <mxGeometry x="550" y="140" width="60" height="100" as="geometry" />
          
        </mxCell>
        
      </root>
      
    </mxGraphModel>
    
  </diagram>
  <diagram id="7Zmd40Aj4BTzgZolbBlT" name="操作NEW">
    
    <mxGraphModel dx="1422" dy="747" grid="1" gridSize="10" guides="1" tooltips="1" connect="1" arrows="1" fold="1" page="1" pageScale="1" pageWidth="1169" pageHeight="827" math="0" shadow="0">
      
      <root>
        
        <mxCell id="ryvpiDfVCvGeCqJeOOvk-0" />
        
        <mxCell id="ryvpiDfVCvGeCqJeOOvk-1" parent="ryvpiDfVCvGeCqJeOOvk-0" />
        
        <mxCell id="o-bm-LR3rF7wr6ffZQJ--2" style="edgeStyle=orthogonalEdgeStyle;rounded=0;orthogonalLoop=1;jettySize=auto;html=1;exitX=1;exitY=0.5;exitDx=0;exitDy=0;entryX=0;entryY=0.5;entryDx=0;entryDy=0;strokeWidth=1;" edge="1" parent="ryvpiDfVCvGeCqJeOOvk-1" source="1LQWmw_etx53VZDOZFgH-0" target="l7RFP1rQDkKJljb2eQsZ-0">
          
          <mxGeometry relative="1" as="geometry" />
          
        </mxCell>
        
        <mxCell id="1LQWmw_etx53VZDOZFgH-0" value="入库&lt;br&gt;工作人员" style="ellipse;whiteSpace=wrap;html=1;aspect=fixed;strokeColor=#000000;strokeWidth=1;fillColor=none;align=center;" vertex="1" parent="ryvpiDfVCvGeCqJeOOvk-1">
          
          <mxGeometry x="40" y="80" width="80" height="80" as="geometry" />
          
        </mxCell>
        
        <mxCell id="o-bm-LR3rF7wr6ffZQJ--9" style="edgeStyle=orthogonalEdgeStyle;rounded=0;orthogonalLoop=1;jettySize=auto;html=1;exitX=1;exitY=0.5;exitDx=0;exitDy=0;entryX=0;entryY=0.5;entryDx=0;entryDy=0;strokeWidth=1;" edge="1" parent="ryvpiDfVCvGeCqJeOOvk-1" source="1LQWmw_etx53VZDOZFgH-1" target="l7RFP1rQDkKJljb2eQsZ-1">
          
          <mxGeometry relative="1" as="geometry" />
          
        </mxCell>
        
        <mxCell id="1LQWmw_etx53VZDOZFgH-1" value="入库&lt;br&gt;工作人员" style="ellipse;whiteSpace=wrap;html=1;aspect=fixed;strokeColor=#000000;strokeWidth=1;fillColor=none;align=center;" vertex="1" parent="ryvpiDfVCvGeCqJeOOvk-1">
          
          <mxGeometry x="40" y="400" width="80" height="80" as="geometry" />
          
        </mxCell>
        
        <mxCell id="o-bm-LR3rF7wr6ffZQJ--3" style="edgeStyle=orthogonalEdgeStyle;rounded=0;orthogonalLoop=1;jettySize=auto;html=1;exitX=1;exitY=0.5;exitDx=0;exitDy=0;entryX=0.5;entryY=0;entryDx=0;entryDy=0;strokeWidth=1;" edge="1" parent="ryvpiDfVCvGeCqJeOOvk-1" source="l7RFP1rQDkKJljb2eQsZ-0" target="sQPtcgLvdQsy_zFruT6P-0">
          
          <mxGeometry relative="1" as="geometry" />
          
        </mxCell>
        
        <mxCell id="l7RFP1rQDkKJljb2eQsZ-0" value="货箱信息" style="shape=document;whiteSpace=wrap;html=1;boundedLbl=1;strokeColor=#000000;strokeWidth=1;fillColor=none;align=center;" vertex="1" parent="ryvpiDfVCvGeCqJeOOvk-1">
          
          <mxGeometry x="200" y="90" width="100" height="60" as="geometry" />
          
        </mxCell>
        
        <mxCell id="o-bm-LR3rF7wr6ffZQJ--10" style="edgeStyle=orthogonalEdgeStyle;rounded=0;orthogonalLoop=1;jettySize=auto;html=1;exitX=1;exitY=0.5;exitDx=0;exitDy=0;entryX=0;entryY=0.5;entryDx=0;entryDy=0;strokeWidth=1;" edge="1" parent="ryvpiDfVCvGeCqJeOOvk-1" source="l7RFP1rQDkKJljb2eQsZ-1" target="WDGeEoPAxwj_WafGbhrC-5">
          
          <mxGeometry relative="1" as="geometry" />
          
        </mxCell>
        
        <mxCell id="l7RFP1rQDkKJljb2eQsZ-1" value="货架信息" style="shape=document;whiteSpace=wrap;html=1;boundedLbl=1;strokeColor=#000000;strokeWidth=1;fillColor=none;align=center;" vertex="1" parent="ryvpiDfVCvGeCqJeOOvk-1">
          
          <mxGeometry x="200" y="410" width="100" height="60" as="geometry" />
          
        </mxCell>
        
        <mxCell id="o-bm-LR3rF7wr6ffZQJ--8" style="edgeStyle=orthogonalEdgeStyle;rounded=0;orthogonalLoop=1;jettySize=auto;html=1;exitX=0.5;exitY=1;exitDx=0;exitDy=0;entryX=0.25;entryY=0;entryDx=0;entryDy=0;strokeWidth=1;" edge="1" parent="ryvpiDfVCvGeCqJeOOvk-1" source="sQPtcgLvdQsy_zFruT6P-0" target="WDGeEoPAxwj_WafGbhrC-4">
          
          <mxGeometry relative="1" as="geometry" />
          
        </mxCell>
        
        <mxCell id="sQPtcgLvdQsy_zFruT6P-0" value="货箱&lt;br&gt;信息&lt;br&gt;入库" style="rounded=0;whiteSpace=wrap;html=1;strokeColor=#000000;strokeWidth=1;fillColor=none;align=center;" vertex="1" parent="ryvpiDfVCvGeCqJeOOvk-1">
          
          <mxGeometry x="360" y="150" width="60" height="100" as="geometry" />
          
        </mxCell>
        
        <mxCell id="o-bm-LR3rF7wr6ffZQJ--5" style="edgeStyle=orthogonalEdgeStyle;rounded=0;orthogonalLoop=1;jettySize=auto;html=1;exitX=1;exitY=0.5;exitDx=0;exitDy=0;entryX=0;entryY=0.5;entryDx=0;entryDy=0;strokeWidth=1;" edge="1" parent="ryvpiDfVCvGeCqJeOOvk-1" source="sQPtcgLvdQsy_zFruT6P-1" target="WDGeEoPAxwj_WafGbhrC-9">
          
          <mxGeometry relative="1" as="geometry" />
          
        </mxCell>
        
        <mxCell id="sQPtcgLvdQsy_zFruT6P-1" value="货箱&lt;br&gt;信息&lt;br&gt;管理" style="rounded=0;whiteSpace=wrap;html=1;strokeColor=#000000;strokeWidth=1;fillColor=none;align=center;" vertex="1" parent="ryvpiDfVCvGeCqJeOOvk-1">
          
          <mxGeometry x="440" y="150" width="60" height="100" as="geometry" />
          
        </mxCell>
        
        <mxCell id="WDGeEoPAxwj_WafGbhrC-0" value="" style="endArrow=none;html=1;strokeWidth=1;" edge="1" parent="ryvpiDfVCvGeCqJeOOvk-1">
          
          <mxGeometry width="50" height="50" relative="1" as="geometry">
            
            <mxPoint x="350" y="310" as="sourcePoint" />
            
            <mxPoint x="510" y="310" as="targetPoint" />
            
          </mxGeometry>
          
        </mxCell>
        
        <mxCell id="WDGeEoPAxwj_WafGbhrC-1" value="" style="endArrow=none;html=1;strokeWidth=1;" edge="1" parent="ryvpiDfVCvGeCqJeOOvk-1">
          
          <mxGeometry width="50" height="50" relative="1" as="geometry">
            
            <mxPoint x="350" y="350" as="sourcePoint" />
            
            <mxPoint x="510" y="350" as="targetPoint" />
            
          </mxGeometry>
          
        </mxCell>
        
        <mxCell id="WDGeEoPAxwj_WafGbhrC-2" value="" style="endArrow=none;html=1;strokeWidth=1;" edge="1" parent="ryvpiDfVCvGeCqJeOOvk-1">
          
          <mxGeometry width="50" height="50" relative="1" as="geometry">
            
            <mxPoint x="350" y="310" as="sourcePoint" />
            
            <mxPoint x="350" y="350" as="targetPoint" />
            
          </mxGeometry>
          
        </mxCell>
        
        <mxCell id="WDGeEoPAxwj_WafGbhrC-3" value="" style="endArrow=none;html=1;strokeWidth=1;" edge="1" parent="ryvpiDfVCvGeCqJeOOvk-1">
          
          <mxGeometry width="50" height="50" relative="1" as="geometry">
            
            <mxPoint x="380" y="310" as="sourcePoint" />
            
            <mxPoint x="380" y="350" as="targetPoint" />
            
          </mxGeometry>
          
        </mxCell>
        
        <mxCell id="o-bm-LR3rF7wr6ffZQJ--6" style="edgeStyle=orthogonalEdgeStyle;rounded=0;orthogonalLoop=1;jettySize=auto;html=1;exitX=0.75;exitY=0;exitDx=0;exitDy=0;entryX=0.5;entryY=1;entryDx=0;entryDy=0;strokeWidth=1;" edge="1" parent="ryvpiDfVCvGeCqJeOOvk-1" source="WDGeEoPAxwj_WafGbhrC-4" target="sQPtcgLvdQsy_zFruT6P-1">
          
          <mxGeometry relative="1" as="geometry" />
          
        </mxCell>
        
        <mxCell id="WDGeEoPAxwj_WafGbhrC-4" value="土壤样品信息" style="text;html=1;strokeColor=none;fillColor=none;align=center;verticalAlign=middle;whiteSpace=wrap;rounded=0;comic=0;" vertex="1" parent="ryvpiDfVCvGeCqJeOOvk-1">
          
          <mxGeometry x="350" y="310" width="160" height="40" as="geometry" />
          
        </mxCell>
        
        <mxCell id="o-bm-LR3rF7wr6ffZQJ--11" style="edgeStyle=orthogonalEdgeStyle;rounded=0;orthogonalLoop=1;jettySize=auto;html=1;exitX=0.5;exitY=0;exitDx=0;exitDy=0;entryX=0.25;entryY=1;entryDx=0;entryDy=0;strokeWidth=1;" edge="1" parent="ryvpiDfVCvGeCqJeOOvk-1" source="WDGeEoPAxwj_WafGbhrC-5" target="WDGeEoPAxwj_WafGbhrC-4">
          
          <mxGeometry relative="1" as="geometry" />
          
        </mxCell>
        
        <mxCell id="WDGeEoPAxwj_WafGbhrC-5" value="货架&lt;br&gt;信息&lt;br&gt;入库" style="rounded=0;whiteSpace=wrap;html=1;strokeColor=#000000;strokeWidth=1;fillColor=none;align=center;" vertex="1" parent="ryvpiDfVCvGeCqJeOOvk-1">
          
          <mxGeometry x="360" y="390" width="60" height="100" as="geometry" />
          
        </mxCell>
        
        <mxCell id="o-bm-LR3rF7wr6ffZQJ--14" style="edgeStyle=orthogonalEdgeStyle;rounded=0;orthogonalLoop=1;jettySize=auto;html=1;exitX=0.5;exitY=0;exitDx=0;exitDy=0;entryX=0.75;entryY=1;entryDx=0;entryDy=0;strokeWidth=1;" edge="1" parent="ryvpiDfVCvGeCqJeOOvk-1" source="WDGeEoPAxwj_WafGbhrC-6" target="WDGeEoPAxwj_WafGbhrC-4">
          
          <mxGeometry relative="1" as="geometry" />
          
        </mxCell>
        
        <mxCell id="o-bm-LR3rF7wr6ffZQJ--16" style="edgeStyle=orthogonalEdgeStyle;rounded=0;orthogonalLoop=1;jettySize=auto;html=1;exitX=1;exitY=0.5;exitDx=0;exitDy=0;entryX=0;entryY=0.5;entryDx=0;entryDy=0;strokeWidth=1;" edge="1" parent="ryvpiDfVCvGeCqJeOOvk-1" source="WDGeEoPAxwj_WafGbhrC-6" target="WDGeEoPAxwj_WafGbhrC-8">
          
          <mxGeometry relative="1" as="geometry" />
          
        </mxCell>
        
        <mxCell id="WDGeEoPAxwj_WafGbhrC-6" value="货架&lt;br&gt;信息&lt;br&gt;管理" style="rounded=0;whiteSpace=wrap;html=1;strokeColor=#000000;strokeWidth=1;fillColor=none;align=center;" vertex="1" parent="ryvpiDfVCvGeCqJeOOvk-1">
          
          <mxGeometry x="440" y="390" width="60" height="100" as="geometry" />
          
        </mxCell>
        
        <mxCell id="o-bm-LR3rF7wr6ffZQJ--18" style="edgeStyle=orthogonalEdgeStyle;rounded=0;orthogonalLoop=1;jettySize=auto;html=1;exitX=0.5;exitY=0;exitDx=0;exitDy=0;entryX=1;entryY=0.75;entryDx=0;entryDy=0;strokeWidth=1;" edge="1" parent="ryvpiDfVCvGeCqJeOOvk-1" source="WDGeEoPAxwj_WafGbhrC-8" target="WDGeEoPAxwj_WafGbhrC-4">
          
          <mxGeometry relative="1" as="geometry" />
          
        </mxCell>
        
        <mxCell id="WDGeEoPAxwj_WafGbhrC-8" value="货架信息" style="shape=document;whiteSpace=wrap;html=1;boundedLbl=1;strokeColor=#000000;strokeWidth=1;fillColor=none;align=center;" vertex="1" parent="ryvpiDfVCvGeCqJeOOvk-1">
          
          <mxGeometry x="620" y="410" width="100" height="60" as="geometry" />
          
        </mxCell>
        
        <mxCell id="o-bm-LR3rF7wr6ffZQJ--19" style="edgeStyle=orthogonalEdgeStyle;rounded=0;orthogonalLoop=1;jettySize=auto;html=1;entryX=1;entryY=0.25;entryDx=0;entryDy=0;strokeWidth=1;" edge="1" parent="ryvpiDfVCvGeCqJeOOvk-1" target="WDGeEoPAxwj_WafGbhrC-4">
          
          <mxGeometry relative="1" as="geometry">
            
            <mxPoint x="670" y="240" as="sourcePoint" />
            
            <Array as="points">
              
              <mxPoint x="670" y="240" />
              
              <mxPoint x="670" y="320" />
              
            </Array>
            
          </mxGeometry>
          
        </mxCell>
        
        <mxCell id="WDGeEoPAxwj_WafGbhrC-9" value="货箱信息" style="shape=document;whiteSpace=wrap;html=1;boundedLbl=1;strokeColor=#000000;strokeWidth=1;fillColor=none;align=center;" vertex="1" parent="ryvpiDfVCvGeCqJeOOvk-1">
          
          <mxGeometry x="620" y="170" width="100" height="60" as="geometry" />
          
        </mxCell>
        
        <mxCell id="o-bm-LR3rF7wr6ffZQJ--4" style="edgeStyle=orthogonalEdgeStyle;rounded=0;orthogonalLoop=1;jettySize=auto;html=1;exitX=0.5;exitY=1;exitDx=0;exitDy=0;entryX=0.5;entryY=0;entryDx=0;entryDy=0;strokeWidth=1;" edge="1" parent="ryvpiDfVCvGeCqJeOOvk-1" source="o-bm-LR3rF7wr6ffZQJ--0" target="sQPtcgLvdQsy_zFruT6P-1">
          
          <mxGeometry relative="1" as="geometry" />
          
        </mxCell>
        
        <mxCell id="o-bm-LR3rF7wr6ffZQJ--0" value="操作人员" style="ellipse;whiteSpace=wrap;html=1;aspect=fixed;strokeColor=#000000;strokeWidth=1;fillColor=none;align=center;" vertex="1" parent="ryvpiDfVCvGeCqJeOOvk-1">
          
          <mxGeometry x="430" y="10" width="80" height="80" as="geometry" />
          
        </mxCell>
        
        <mxCell id="o-bm-LR3rF7wr6ffZQJ--15" style="edgeStyle=orthogonalEdgeStyle;rounded=0;orthogonalLoop=1;jettySize=auto;html=1;exitX=0.5;exitY=0;exitDx=0;exitDy=0;entryX=0.5;entryY=1;entryDx=0;entryDy=0;strokeWidth=1;" edge="1" parent="ryvpiDfVCvGeCqJeOOvk-1" source="o-bm-LR3rF7wr6ffZQJ--1" target="WDGeEoPAxwj_WafGbhrC-6">
          
          <mxGeometry relative="1" as="geometry" />
          
        </mxCell>
        
        <mxCell id="o-bm-LR3rF7wr6ffZQJ--1" value="操作人员" style="ellipse;whiteSpace=wrap;html=1;aspect=fixed;strokeColor=#000000;strokeWidth=1;fillColor=none;align=center;" vertex="1" parent="ryvpiDfVCvGeCqJeOOvk-1">
          
          <mxGeometry x="430" y="550" width="80" height="80" as="geometry" />
          
        </mxCell>
        
      </root>
      
    </mxGraphModel>
    
  </diagram>
  <diagram id="KzpLQYjI8f20e9zRdv3A" name="样品库监控信息管理模块">
    <mxGraphModel dx="1422" dy="747" grid="1" gridSize="10" guides="1" tooltips="1" connect="1" arrows="1" fold="1" page="1" pageScale="1" pageWidth="1169" pageHeight="827" math="0" shadow="0">
      <root>
        <mxCell id="eq5lRDljBdiDBoDolNSy-0" />
        <mxCell id="eq5lRDljBdiDBoDolNSy-1" parent="eq5lRDljBdiDBoDolNSy-0" />
        <mxCell id="Mhdlip9MDSOCJY9kVHjv-0" value="3D&lt;br&gt;样品库&lt;br&gt;状态&lt;br&gt;显示" style="rounded=0;whiteSpace=wrap;html=1;align=center;" vertex="1" parent="eq5lRDljBdiDBoDolNSy-1">
          <mxGeometry x="40" y="190" width="40" height="100" as="geometry" />
        </mxCell>
        <mxCell id="Mhdlip9MDSOCJY9kVHjv-1" value="维护&lt;br&gt;状态&lt;br&gt;文字&lt;br&gt;提醒" style="rounded=0;whiteSpace=wrap;html=1;align=center;" vertex="1" parent="eq5lRDljBdiDBoDolNSy-1">
          <mxGeometry x="100" y="190" width="40" height="100" as="geometry" />
        </mxCell>
        <mxCell id="xcDjFP1QtO9_5KMDdqtT-7" style="edgeStyle=orthogonalEdgeStyle;rounded=0;orthogonalLoop=1;jettySize=auto;html=1;exitX=0.5;exitY=1;exitDx=0;exitDy=0;entryX=0.5;entryY=0;entryDx=0;entryDy=0;endArrow=none;endFill=0;" edge="1" parent="eq5lRDljBdiDBoDolNSy-1" source="xcDjFP1QtO9_5KMDdqtT-0" target="Mhdlip9MDSOCJY9kVHjv-0">
          <mxGeometry relative="1" as="geometry" />
        </mxCell>
        <mxCell id="xcDjFP1QtO9_5KMDdqtT-8" style="edgeStyle=orthogonalEdgeStyle;rounded=0;orthogonalLoop=1;jettySize=auto;html=1;exitX=0.5;exitY=1;exitDx=0;exitDy=0;entryX=0.5;entryY=0;entryDx=0;entryDy=0;endArrow=none;endFill=0;" edge="1" parent="eq5lRDljBdiDBoDolNSy-1" source="xcDjFP1QtO9_5KMDdqtT-0" target="Mhdlip9MDSOCJY9kVHjv-1">
          <mxGeometry relative="1" as="geometry" />
        </mxCell>
        <mxCell id="xcDjFP1QtO9_5KMDdqtT-0" value="维护状态提醒" style="rounded=0;whiteSpace=wrap;html=1;align=center;" vertex="1" parent="eq5lRDljBdiDBoDolNSy-1">
          <mxGeometry x="20" y="110" width="140" height="40" as="geometry" />
        </mxCell>
        <mxCell id="xcDjFP1QtO9_5KMDdqtT-1" value="样品余量提醒" style="rounded=0;whiteSpace=wrap;html=1;align=center;" vertex="1" parent="eq5lRDljBdiDBoDolNSy-1">
          <mxGeometry x="200" y="110" width="140" height="40" as="geometry" />
        </mxCell>
        <mxCell id="xcDjFP1QtO9_5KMDdqtT-2" value="样品借出提醒" style="rounded=0;whiteSpace=wrap;html=1;align=center;" vertex="1" parent="eq5lRDljBdiDBoDolNSy-1">
          <mxGeometry x="380" y="110" width="140" height="40" as="geometry" />
        </mxCell>
        <mxCell id="xcDjFP1QtO9_5KMDdqtT-4" style="edgeStyle=orthogonalEdgeStyle;rounded=0;orthogonalLoop=1;jettySize=auto;html=1;exitX=0.5;exitY=1;exitDx=0;exitDy=0;endArrow=none;endFill=0;" edge="1" parent="eq5lRDljBdiDBoDolNSy-1" source="xcDjFP1QtO9_5KMDdqtT-3" target="xcDjFP1QtO9_5KMDdqtT-0">
          <mxGeometry relative="1" as="geometry" />
        </mxCell>
        <mxCell id="xcDjFP1QtO9_5KMDdqtT-5" style="edgeStyle=orthogonalEdgeStyle;rounded=0;orthogonalLoop=1;jettySize=auto;html=1;exitX=0.5;exitY=1;exitDx=0;exitDy=0;entryX=0.5;entryY=0;entryDx=0;entryDy=0;endArrow=none;endFill=0;" edge="1" parent="eq5lRDljBdiDBoDolNSy-1" source="xcDjFP1QtO9_5KMDdqtT-3" target="xcDjFP1QtO9_5KMDdqtT-2">
          <mxGeometry relative="1" as="geometry" />
        </mxCell>
        <mxCell id="xcDjFP1QtO9_5KMDdqtT-6" style="edgeStyle=orthogonalEdgeStyle;rounded=0;orthogonalLoop=1;jettySize=auto;html=1;exitX=0.5;exitY=1;exitDx=0;exitDy=0;entryX=0.5;entryY=0;entryDx=0;entryDy=0;endArrow=none;endFill=0;" edge="1" parent="eq5lRDljBdiDBoDolNSy-1" source="xcDjFP1QtO9_5KMDdqtT-3" target="xcDjFP1QtO9_5KMDdqtT-1">
          <mxGeometry relative="1" as="geometry" />
        </mxCell>
        <mxCell id="xcDjFP1QtO9_5KMDdqtT-3" value="样品库监控信息管理模块" style="rounded=0;whiteSpace=wrap;html=1;align=center;" vertex="1" parent="eq5lRDljBdiDBoDolNSy-1">
          <mxGeometry x="180" y="10" width="180" height="40" as="geometry" />
        </mxCell>
      </root>
    </mxGraphModel>
  </diagram>
</mxfile>
